<svg aria-hidden="true" style="position: absolute; width: 0; height: 0; overflow: hidden;" version="1.1" xmlns="http://www.w3.org/2000/svg" xmlns:xlink="http://www.w3.org/1999/xlink">
<defs>
<symbol id="icon-arrow" viewBox="0 0 36 32">
<path fill="#fff" style="fill: var(--color1, #fff)" d="M32 13.227h-32v4.267h32v-4.267z"></path>
<path fill="#fff" style="fill: var(--color1, #fff)" d="M19.776 30.72l-3.029-2.987 12.139-12.373-12.139-12.373 3.029-2.987 15.083 15.36-15.083 15.36z"></path>
</symbol>
<symbol id="icon-man" viewBox="0 0 31 32">
<path fill="#57a6eb" style="fill: var(--color2, #57a6eb)" d="M20.092 17.27c1.74-1.038 3.093-2.623 3.851-4.511s0.879-3.974 0.344-5.937c-0.535-1.963-1.696-3.696-3.304-4.93s-3.575-1.903-5.598-1.903-3.99 0.669-5.598 1.903c-1.608 1.235-2.769 2.967-3.304 4.93s-0.414 4.049 0.344 5.937c0.758 1.887 2.111 3.472 3.851 4.511-3.099 1.003-5.803 2.969-7.721 5.616s-2.953 5.838-2.956 9.115h2.051c0-3.559 1.405-6.972 3.905-9.489s5.892-3.93 9.428-3.93 6.928 1.414 9.428 3.93c2.501 2.517 3.905 5.93 3.905 9.489h2.051c-0.002-3.276-1.037-6.468-2.956-9.115s-4.622-4.613-7.721-5.616zM8.205 9.29c0-1.429 0.421-2.826 1.21-4.014s1.91-2.114 3.222-2.661c1.312-0.547 2.755-0.69 4.148-0.411s2.672 0.967 3.676 1.978 1.688 2.298 1.965 3.7c0.277 1.402 0.135 2.855-0.409 4.175s-1.464 2.449-2.644 3.243c-1.181 0.794-2.569 1.218-3.989 1.218-1.904 0-3.73-0.761-5.077-2.116s-2.103-3.193-2.103-5.109z"></path>
</symbol>
<symbol id="icon-Frame-3" viewBox="0 0 32 32">
<path fill="#57a6eb" style="fill: var(--color2, #57a6eb)" d="M32.011 30.466l-9.948-10.104c1.763-2.168 2.73-4.866 2.742-7.65s-0.931-5.491-2.675-7.674c-1.744-2.183-4.185-3.713-6.921-4.339s-5.607-0.311-8.14 0.894-4.576 3.228-5.796 5.736c-1.22 2.509-1.543 5.354-0.916 8.068s2.166 5.137 4.365 6.87c2.199 1.733 4.927 2.673 7.735 2.666 2.967-0.004 5.832-1.070 8.069-3.003l9.948 10.071 1.537-1.534zM12.413 22.74c-2.057 0.031-4.077-0.547-5.803-1.658s-3.079-2.707-3.887-4.583-1.035-3.948-0.652-5.952c0.383-2.004 1.359-3.85 2.804-5.303s3.293-2.446 5.309-2.854c2.016-0.408 4.109-0.212 6.012 0.563s3.531 2.094 4.676 3.789c1.145 1.695 1.755 3.689 1.753 5.73 0.015 2.703-1.052 5.302-2.967 7.227s-4.521 3.019-7.247 3.042z"></path>
</symbol>
<symbol id="icon-phone" viewBox="0 0 32 32">
<path fill="#fff" style="fill: var(--color1, #fff)" opacity="0.35" d="M20.849 22.692c0.271-0.13 0.528-0.288 0.767-0.473 0.74-0.704 1.444-1.436 2.166-2.158 0.094-0.143 0.218-0.264 0.364-0.354s0.309-0.147 0.48-0.166c0.17-0.020 0.342-0.001 0.505 0.053s0.311 0.144 0.434 0.262l5.723 3.673c0.164 0.069 0.311 0.174 0.429 0.308s0.203 0.293 0.249 0.466c0.046 0.172 0.053 0.352 0.019 0.528s-0.108 0.34-0.215 0.482l-2.674 5.751c-0.437 0.892-0.731 1.052-1.72 0.892-7.532-1.016-13.665-4.645-18.817-10.084-3.888-3.989-6.631-8.95-7.942-14.364-0.241-1.008-0.374-2.042-0.544-3.067-0.069-0.288-0.027-0.591 0.116-0.851s0.379-0.455 0.659-0.549c1.997-0.892 3.984-1.881 5.981-2.809 0.139-0.099 0.298-0.164 0.465-0.192s0.34-0.018 0.503 0.030c0.163 0.048 0.313 0.133 0.439 0.247s0.224 0.256 0.287 0.414c1.23 1.902 2.457 3.81 3.681 5.724 0.12 0.123 0.212 0.27 0.268 0.433s0.075 0.335 0.057 0.505c-0.019 0.171-0.075 0.335-0.165 0.481s-0.211 0.27-0.355 0.364c-0.677 0.678-1.328 1.382-2.041 2.024-0.236 0.204-0.407 0.471-0.494 0.77s-0.086 0.617 0.004 0.915c0.716 3.159 2.513 5.969 5.081 7.944 1.6 1.345 3.513 2.265 5.562 2.675 0.152 0.045 0.374 0.062 0.731 0.125z"></path>
<path fill="#fff" style="fill: var(--color1, #fff)" opacity="0.35" d="M16.562 0c3.662 0.149 7.162 1.548 9.919 3.963s4.604 5.702 5.234 9.313c0.125 0.821 0.205 1.649 0.241 2.479 0.031 0.16 0.027 0.325-0.011 0.483s-0.109 0.307-0.208 0.436c-0.099 0.129-0.225 0.235-0.369 0.312s-0.302 0.122-0.464 0.133c-0.677 0-1.15-0.49-1.159-1.337-0.011-2.384-0.67-4.721-1.908-6.758-1.164-2.024-2.83-3.714-4.839-4.904s-4.29-1.841-6.624-1.89c-0.16 0-0.33 0-0.499 0-0.281-0.031-0.541-0.164-0.731-0.375s-0.294-0.484-0.295-0.767c0.014-0.301 0.146-0.585 0.368-0.788s0.516-0.311 0.817-0.299h0.526z"></path>
<path fill="#fff" style="fill: var(--color1, #fff)" opacity="0.35" d="M25.948 16.941c-0.171 0.076-0.357 0.115-0.544 0.115s-0.372-0.039-0.544-0.115c-0.508-0.178-0.579-0.695-0.597-1.195-0.050-1.834-0.711-3.599-1.879-5.014s-2.775-2.399-4.566-2.796c-0.553-0.107-1.113-0.17-1.676-0.187-0.749-0.062-1.239-0.499-1.23-1.141 0.009-0.156 0.049-0.309 0.119-0.45s0.167-0.265 0.286-0.367c0.119-0.102 0.258-0.178 0.407-0.225s0.307-0.062 0.463-0.047c2.497 0.053 4.895 0.99 6.766 2.646s3.093 3.922 3.45 6.395c0 0.374 0.080 0.74 0.116 1.114-0.009 0.829-0.241 0.972-0.57 1.266z"></path>
</symbol>
<symbol id="icon-twitter" viewBox="0 0 39 32">
<path fill="#fff" style="fill: var(--color1, #fff)" d="M0 28.578c4.145 0.271 8.247-0.956 11.527-3.45-1.68-0.087-3.294-0.666-4.633-1.662s-2.342-2.362-2.879-3.922c1.169 0.198 2.37 0.111 3.497-0.254-1.819-0.425-3.446-1.422-4.63-2.839-1.222-1.426-1.876-3.235-1.844-5.095 1.11 0.564 2.342 0.861 3.593 0.865-0.403-0.376-0.788-0.724-1.172-1.081-1.119-1.087-1.876-2.48-2.171-3.995-0.165-0.963-0.191-1.944-0.077-2.914 0.096-0.871 0.384-1.712 0.845-2.463 0.163-0.282 0.298-0.066 0.413 0.056 0.471 0.489 0.922 0.996 1.374 1.476 1.756 1.718 3.787 3.144 6.013 4.221 1.705 0.877 3.529 1.511 5.418 1.88 1.182 0.216 2.382 0.357 3.583 0.526 0.115 0 0.231 0 0.375 0s0-0.226 0-0.32c-0.265-1.37-0.169-2.784 0.279-4.108 0.594-1.698 1.737-3.16 3.256-4.165 0.88-0.594 1.878-0.997 2.93-1.185 1.205-0.228 2.446-0.203 3.641 0.075 1.426 0.342 2.728 1.061 3.766 2.078 0.074 0.060 0.16 0.105 0.253 0.131s0.19 0.033 0.285 0.020c0.961-0.282 1.979-0.564 2.94-0.94 0.595-0.207 1.143-0.526 1.719-0.79 0 0 0.077 0 0.221 0-0.616 1.717-1.786 3.192-3.333 4.202 1.441-0.097 2.857-0.415 4.198-0.94 0.015 0.093 0.015 0.189 0 0.282-0.866 1.205-1.912 2.276-3.103 3.177-0.213 0.132-0.385 0.318-0.498 0.538s-0.164 0.466-0.145 0.712c0.050 1.377-0.060 2.755-0.326 4.108-0.31 1.771-0.823 3.502-1.527 5.161-0.851 2.022-1.982 3.92-3.362 5.64-0.89 1.106-1.881 2.132-2.959 3.065-1.172 1.052-2.484 1.944-3.9 2.651-1.103 0.524-2.235 0.989-3.391 1.391-1.119 0.356-2.258 0.651-3.41 0.884-1.953 0.385-3.95 0.508-5.937 0.367-0.995-0.043-1.986-0.146-2.968-0.31-1.375-0.212-2.721-0.571-4.015-1.072-1.251-0.451-2.457-1.014-3.602-1.683-0.087-0.064-0.167-0.137-0.24-0.216v-0.103z"></path>
</symbol>
<symbol id="icon-in" viewBox="0 0 34 32">
<path fill="#fff" style="fill: var(--color1, #fff)" d="M34.133 32h-7.366v-0.818c0-3.482 0-7.025 0-10.533-0.004-0.799-0.11-1.594-0.314-2.368-0.14-0.589-0.434-1.132-0.856-1.577s-0.955-0.776-1.549-0.96-1.226-0.216-1.836-0.092c-0.61 0.124-1.176 0.4-1.643 0.8-0.514 0.39-0.925 0.893-1.201 1.466s-0.409 1.201-0.389 1.834c0 3.787 0 7.565 0 11.317v0.87h-7.303v-21.406h7.294v2.864c0.519-0.61 1.074-1.192 1.662-1.741 1.039-0.811 2.267-1.362 3.578-1.604s2.662-0.169 3.936 0.213c1.274 0.383 2.432 1.063 3.371 1.981s1.631 2.046 2.015 3.284c0.278 0.914 0.413 1.863 0.611 2.803l-0.009 13.667z"></path>
<path fill="#fff" style="fill: var(--color1, #fff)" d="M0.198 10.516h7.258v21.441h-7.258v-21.441z"></path>
<path fill="#fff" style="fill: var(--color1, #fff)" d="M3.898 7.556c2.153 0 3.898-1.691 3.898-3.778s-1.745-3.778-3.898-3.778c-2.153 0-3.898 1.691-3.898 3.778s1.745 3.778 3.898 3.778z"></path>
</symbol>
<symbol id="icon-facebook" viewBox="0 0 17 32">
<path fill="#fff" style="fill: var(--color1, #fff)" d="M10.629 32h-6.165c0-0.22 0-0.448 0-0.668v-15.808h-4.464v-5.433h4.449c0-0.235 0-2.503 0-4.046-0.032-1.18 0.312-2.343 0.988-3.34s1.654-1.782 2.808-2.256c0.533-0.244 1.109-0.396 1.701-0.448h7.121v5.476h-4.418c-0.261-0.026-0.525 0.003-0.772 0.086s-0.472 0.215-0.658 0.389c-0.186 0.174-0.327 0.384-0.415 0.616s-0.119 0.479-0.091 0.723c0 1.060 0 2.517 0 2.844h6.354c0 0.164-0.38 3.556-0.509 4.978 0 0.327-0.129 0.434-0.493 0.434-1.306 0-4.882 0-5.421 0-0.015 5.077-0.015 11.349-0.015 16.455z"></path>
</symbol>
<symbol id="icon-Vector-3" viewBox="0 0 53 32">
<path fill="none" stroke="#fff" style="stroke: var(--color1, #fff)" stroke-linejoin="miter" stroke-linecap="butt" stroke-miterlimit="4" stroke-width="5.3333" d="M5.333 5.333l21.333 21.333 21.333-21.333"></path>
</symbol>
<symbol id="logo" viewBox="0 0 244 32">
<path fill="#acacac" style="fill: var(--color1, #acacac)" d="M80.080 10.949c0.504 0.024 1.008-0.053 1.483-0.226s0.91-0.438 1.281-0.78c0.337-0.313 0.605-0.693 0.785-1.116s0.27-0.879 0.262-1.339c0.006-0.456-0.084-0.908-0.264-1.327s-0.447-0.794-0.783-1.103c-0.371-0.342-0.807-0.607-1.281-0.78s-0.979-0.249-1.483-0.226h-4.607v6.894h4.607zM80.134 1.34c0.872-0.036 1.742 0.102 2.559 0.407s1.567 0.768 2.203 1.365c0.596 0.56 1.068 1.239 1.385 1.993s0.471 1.566 0.454 2.384c0.017 0.819-0.138 1.632-0.455 2.387s-0.788 1.436-1.384 1.998c-0.634 0.601-1.382 1.069-2.2 1.375s-1.689 0.446-2.562 0.409h-4.67v7.284h-2.764v-19.602h7.435z"></path>
<path fill="#acacac" style="fill: var(--color1, #acacac)" d="M92.26 17.068c0.697 0.696 1.584 1.17 2.549 1.362s1.966 0.094 2.876-0.282 1.688-1.013 2.237-1.831c0.548-0.818 0.842-1.779 0.845-2.764 0.010-0.659-0.115-1.313-0.366-1.922s-0.624-1.161-1.096-1.621c-0.458-0.468-1.005-0.84-1.609-1.094s-1.252-0.385-1.907-0.385-1.303 0.131-1.907 0.385c-0.604 0.254-1.151 0.626-1.609 1.094-0.471 0.461-0.843 1.013-1.094 1.622s-0.376 1.263-0.367 1.922c-0.011 0.654 0.112 1.303 0.362 1.907s0.619 1.151 1.088 1.607zM90.274 8.184c0.638-0.712 1.42-1.279 2.295-1.663s1.822-0.577 2.777-0.565c1.163-0.005 2.304 0.322 3.288 0.942 0.954 0.565 1.724 1.394 2.216 2.387l0.134-3.116h2.412v14.773h-2.412l-0.134-3.083c-0.498 0.979-1.267 1.793-2.216 2.346-0.987 0.612-2.127 0.933-3.288 0.926-0.957 0.011-1.905-0.182-2.782-0.565s-1.662-0.949-2.303-1.659c-1.377-1.433-2.13-3.353-2.094-5.34-0.017-0.99 0.162-1.974 0.525-2.896s0.905-1.762 1.594-2.474z"></path>
<path fill="#acacac" style="fill: var(--color1, #acacac)" d="M105.918 6.17h2.069l0.323-4.829h2.198v4.829h3.543v2.362h-3.543v6.873c-0.057 0.857 0.201 1.706 0.724 2.387 0.249 0.278 0.556 0.498 0.899 0.642s0.715 0.212 1.087 0.195c0.384 0.002 0.766-0.066 1.126-0.201l0.674 2.333c-0.679 0.287-1.411 0.43-2.148 0.419-0.662 0.025-1.322-0.087-1.938-0.329s-1.175-0.609-1.644-1.078c-0.921-0.938-1.381-2.383-1.381-4.335v-6.907h-1.99v-2.362z"></path>
<path fill="#acacac" style="fill: var(--color1, #acacac)" d="M118.953 12.616h9.475c-0.027-0.567-0.166-1.123-0.412-1.635-0.244-0.512-0.589-0.97-1.013-1.347-0.905-0.82-2.092-1.257-3.313-1.219-1.204-0.032-2.373 0.405-3.262 1.219-0.866 0.761-1.395 1.833-1.475 2.982zM118.363 8.184c1.409-1.408 3.321-2.199 5.313-2.199s3.903 0.791 5.313 2.199c0.699 0.7 1.249 1.534 1.618 2.451s0.549 1.9 0.53 2.889c0 0.071-0.025 0.486-0.080 1.257h-12.066c0.191 1.117 0.801 2.119 1.705 2.802 1.123 0.845 2.526 1.234 3.924 1.088s2.69-0.816 3.615-1.875l2.119 1.311c-0.727 0.956-1.676 1.721-2.765 2.228-1.109 0.549-2.331 0.836-3.568 0.838-1.034 0.026-2.061-0.158-3.021-0.541s-1.831-0.957-2.563-1.688c-0.726-0.695-1.302-1.533-1.691-2.462-0.387-0.928-0.579-1.927-0.562-2.933-0.014-0.993 0.174-1.978 0.551-2.896 0.379-0.918 0.939-1.75 1.647-2.445z"></path>
<path fill="#acacac" style="fill: var(--color1, #acacac)" d="M134.098 20.942v-14.773h2.417l0.134 2.605c0.42-0.832 1.055-1.536 1.838-2.040 0.837-0.53 1.812-0.801 2.802-0.779 0.825-0.030 1.646 0.125 2.402 0.452 0.757 0.327 1.433 0.82 1.975 1.441 1.117 1.262 1.676 3.119 1.676 5.571v7.522h-2.63v-7.539c0-1.596-0.373-2.806-1.127-3.64-0.367-0.392-0.811-0.705-1.303-0.918s-1.024-0.324-1.562-0.324c-0.537 0-1.068 0.11-1.561 0.324s-0.937 0.526-1.303 0.918c-0.763 0.838-1.14 2.040-1.14 3.652v7.527h-2.618z"></path>
<path fill="#acacac" style="fill: var(--color1, #acacac)" d="M149.185 6.17h2.065l0.322-4.829h2.199v4.829h3.543v2.362h-3.543v6.873c-0.057 0.857 0.201 1.706 0.724 2.387 0.249 0.278 0.556 0.498 0.898 0.642 0.343 0.145 0.716 0.212 1.088 0.195 0.385 0.006 0.768-0.058 1.131-0.188l0.67 2.333c-0.679 0.288-1.411 0.43-2.148 0.419-0.662 0.025-1.322-0.087-1.938-0.329s-1.175-0.609-1.644-1.078c-0.922-0.938-1.381-2.383-1.381-4.335v-6.919h-1.986v-2.362z"></path>
<path fill="#fff" style="fill: var(--color2, #fff)" d="M161.341 20.942v-19.602h2.898l7.435 12.616 7.405-12.616h2.932v19.602h-2.765v-14.986l-6.768 11.514h-1.638l-6.735-11.514v14.986h-2.764z"></path>
<path fill="#fff" style="fill: var(--color2, #fff)" d="M189.139 17.068c0.697 0.696 1.584 1.17 2.549 1.362s1.966 0.094 2.877-0.282c0.91-0.376 1.687-1.013 2.236-1.831s0.843-1.779 0.845-2.764c0.010-0.659-0.114-1.313-0.366-1.922s-0.624-1.161-1.095-1.621c-0.459-0.468-1.005-0.839-1.609-1.093-0.603-0.254-1.251-0.384-1.906-0.384-0.654 0-1.302 0.131-1.906 0.384-0.603 0.254-1.15 0.625-1.607 1.093-0.473 0.46-0.846 1.012-1.098 1.621-0.253 0.609-0.378 1.263-0.369 1.923-0.011 0.654 0.113 1.303 0.362 1.907 0.25 0.604 0.62 1.151 1.088 1.607zM187.154 8.184c0.638-0.712 1.42-1.279 2.294-1.663 0.876-0.384 1.822-0.577 2.778-0.565 1.164-0.005 2.304 0.322 3.287 0.942 0.955 0.565 1.724 1.394 2.217 2.387l0.133-3.116h2.413v14.773h-2.413l-0.133-3.083c-0.498 0.979-1.267 1.793-2.217 2.346-0.987 0.612-2.126 0.933-3.287 0.926-0.957 0.011-1.905-0.182-2.782-0.565s-1.662-0.949-2.303-1.659c-1.377-1.433-2.13-3.353-2.094-5.34-0.017-0.99 0.161-1.974 0.525-2.896s0.906-1.762 1.595-2.474z"></path>
<path fill="#fff" style="fill: var(--color2, #fff)" d="M204.117 20.942v-20.942h2.513v12.775l6.601-6.605h3.113l-5.663 5.881 6.4 8.892h-3.087l-4.989-6.932-2.391 2.325v4.607h-2.496z"></path>
<path fill="#fff" style="fill: var(--color2, #fff)" d="M220.218 12.616h9.474c-0.026-0.567-0.164-1.122-0.409-1.634-0.243-0.512-0.588-0.97-1.011-1.348-0.905-0.82-2.092-1.257-3.313-1.219-1.21-0.036-2.386 0.401-3.279 1.219-0.858 0.76-1.382 1.826-1.462 2.97zM219.628 8.172c1.409-1.408 3.321-2.199 5.313-2.199 1.991 0 3.903 0.791 5.313 2.199 0.699 0.7 1.248 1.534 1.618 2.451 0.369 0.918 0.549 1.9 0.53 2.889 0 0.071-0.026 0.486-0.080 1.257h-12.075c0.188 1.117 0.796 2.12 1.7 2.802 1.123 0.845 2.526 1.234 3.924 1.088s2.69-0.816 3.615-1.875l2.119 1.311c-0.727 0.956-1.676 1.721-2.765 2.228-1.109 0.549-2.331 0.836-3.568 0.838-1.034 0.026-2.061-0.157-3.021-0.541s-1.831-0.957-2.563-1.688c-0.726-0.695-1.302-1.533-1.691-2.462-0.387-0.928-0.579-1.927-0.562-2.933-0.014-0.993 0.174-1.978 0.551-2.896 0.379-0.918 0.939-1.75 1.647-2.445z"></path>
<path fill="#fff" style="fill: var(--color2, #fff)" d="M235.359 6.17h2.413l0.163 2.417c0.413-0.788 1.054-1.433 1.839-1.851 0.839-0.439 1.775-0.661 2.722-0.645h0.134c0.369 0.001 0.737 0.027 1.102 0.080l-0.537 2.513c-0.169-0.032-0.339-0.050-0.511-0.054-0.626-0.021-1.249 0.084-1.833 0.31-0.585 0.226-1.116 0.568-1.565 1.005-0.882 0.877-1.325 2.263-1.327 4.159v6.84h-2.602v-14.773z"></path>
<path fill="#fff" style="fill: var(--color2, #fff)" d="M73.772 26.266v4.729h1.081c0.331 0.012 0.661-0.043 0.97-0.162s0.59-0.301 0.827-0.533c0.218-0.22 0.39-0.482 0.505-0.77s0.171-0.596 0.166-0.905c0.007-0.312-0.051-0.622-0.17-0.91s-0.297-0.549-0.521-0.765c-0.236-0.229-0.516-0.408-0.824-0.526s-0.636-0.171-0.965-0.157h-1.068zM74.852 25.361c0.454-0.016 0.906 0.059 1.33 0.22s0.812 0.405 1.141 0.718c0.612 0.621 0.955 1.457 0.955 2.329s-0.343 1.708-0.955 2.329c-0.33 0.315-0.721 0.561-1.149 0.721s-0.883 0.233-1.339 0.213h-2.002v-6.53h2.019z"></path>
<path fill="#fff" style="fill: var(--color2, #fff)" d="M81.185 31.891h-0.921v-6.53h0.921v6.53z"></path>
<path fill="#fff" style="fill: var(--color2, #fff)" d="M84.134 26.258c0.308-0.318 0.678-0.57 1.088-0.739s0.849-0.253 1.292-0.246c0.519-0.002 1.031 0.117 1.495 0.348 0.458 0.228 0.858 0.556 1.173 0.959l-0.838 0.498c-0.225-0.271-0.507-0.488-0.825-0.638s-0.666-0.228-1.018-0.229c-0.318-0.004-0.634 0.056-0.928 0.177s-0.561 0.3-0.785 0.527c-0.229 0.22-0.41 0.485-0.532 0.778s-0.182 0.609-0.176 0.926c-0.002 0.319 0.059 0.636 0.18 0.931s0.299 0.564 0.524 0.79 0.493 0.406 0.788 0.528c0.295 0.122 0.611 0.185 0.93 0.184 0.57 0.020 1.125-0.181 1.55-0.561 0.411-0.382 0.654-0.91 0.678-1.47h-2.446v-0.838h3.443c0.027 0.151 0.040 0.303 0.038 0.457 0.018 0.446-0.053 0.891-0.209 1.308s-0.394 0.8-0.7 1.125c-0.306 0.312-0.674 0.557-1.080 0.718s-0.841 0.236-1.278 0.22c-0.668 0.006-1.323-0.187-1.88-0.556s-0.992-0.895-1.248-1.513c-0.256-0.617-0.321-1.297-0.188-1.952s0.46-1.255 0.937-1.723z"></path>
<path fill="#fff" style="fill: var(--color2, #fff)" d="M92.678 31.891h-0.921v-6.53h0.921v6.53z"></path>
<path fill="#fff" style="fill: var(--color2, #fff)" d="M94.505 25.361h4.913v0.888h-1.998v5.642h-0.921v-5.642h-1.994v-0.888z"></path>
<path fill="#fff" style="fill: var(--color2, #fff)" d="M104.050 29.319l-0.993-2.718-0.984 2.718h1.977zM102.555 25.357h1.001l2.412 6.534h-1.001l-0.628-1.675h-2.513l-0.616 1.675h-1.022l2.367-6.534z"></path>
<path fill="#fff" style="fill: var(--color2, #fff)" d="M111.916 31.891h-4.213v-6.53h0.922v5.608h3.292v0.921z"></path>
<path fill="#fff" style="fill: var(--color2, #fff)" d="M120.369 29.319l-0.997-2.714-0.98 2.714h1.978zM118.874 25.357h1.001l2.391 6.53h-1.005l-0.624-1.675h-2.513l-0.62 1.675h-1.019l2.388-6.53z"></path>
<path fill="#fff" style="fill: var(--color2, #fff)" d="M123.628 30.961l0.581-0.591c0.229 0.242 0.506 0.435 0.812 0.568s0.636 0.201 0.969 0.203c0.345 0.016 0.686-0.080 0.972-0.272 0.119-0.086 0.217-0.2 0.282-0.332s0.096-0.279 0.092-0.426c0.002-0.201-0.068-0.395-0.197-0.549-0.144-0.159-0.319-0.286-0.515-0.373-0.228-0.1-0.462-0.188-0.7-0.264-0.251-0.080-0.507-0.168-0.757-0.272-0.243-0.096-0.477-0.212-0.7-0.348-0.213-0.134-0.389-0.318-0.515-0.536-0.137-0.247-0.204-0.526-0.197-0.808-0.004-0.234 0.046-0.466 0.145-0.678s0.246-0.398 0.429-0.545c0.444-0.342 0.995-0.513 1.554-0.482 0.407 0.002 0.81 0.089 1.181 0.255 0.396 0.176 0.739 0.452 0.997 0.8l-0.654 0.494c-0.163-0.227-0.385-0.406-0.64-0.519-0.263-0.122-0.548-0.187-0.838-0.193h-0.046c-0.311-0.013-0.62 0.068-0.883 0.235-0.106 0.064-0.193 0.153-0.254 0.26s-0.094 0.228-0.094 0.351c-0.002 0.186 0.068 0.365 0.196 0.498 0.145 0.15 0.321 0.266 0.515 0.339 0.21 0.088 0.444 0.168 0.695 0.247s0.511 0.167 0.767 0.268c0.245 0.095 0.481 0.214 0.703 0.356 0.214 0.143 0.39 0.337 0.511 0.565 0.138 0.257 0.206 0.546 0.197 0.838 0.010 0.265-0.042 0.529-0.149 0.772-0.109 0.242-0.271 0.457-0.475 0.627-0.452 0.36-1.019 0.545-1.596 0.524h-0.034c-0.443 0.007-0.882-0.082-1.289-0.259s-0.769-0.441-1.065-0.771z"></path>
<path fill="#fff" style="fill: var(--color2, #fff)" d="M129.91 30.961l0.581-0.591c0.229 0.242 0.506 0.435 0.812 0.568s0.636 0.201 0.969 0.203c0.345 0.015 0.686-0.080 0.972-0.272 0.119-0.086 0.215-0.201 0.279-0.333 0.065-0.132 0.095-0.278 0.090-0.425 0.006-0.201-0.064-0.397-0.197-0.549-0.141-0.16-0.316-0.287-0.511-0.373-0.228-0.1-0.462-0.188-0.7-0.264-0.251-0.080-0.507-0.168-0.757-0.272-0.243-0.095-0.478-0.211-0.7-0.348-0.214-0.133-0.391-0.317-0.515-0.536-0.137-0.247-0.204-0.526-0.197-0.808-0.003-0.234 0.046-0.466 0.145-0.678s0.246-0.398 0.429-0.545c0.444-0.342 0.995-0.513 1.554-0.482 0.407 0.002 0.81 0.089 1.181 0.255 0.396 0.176 0.739 0.452 0.997 0.8l-0.654 0.494c-0.164-0.226-0.385-0.405-0.64-0.519-0.263-0.122-0.548-0.187-0.838-0.193h-0.046c-0.311-0.014-0.62 0.068-0.883 0.235-0.107 0.063-0.194 0.153-0.255 0.26s-0.093 0.228-0.093 0.352c-0.002 0.092 0.014 0.184 0.048 0.269 0.033 0.086 0.084 0.164 0.148 0.229 0.145 0.15 0.321 0.266 0.515 0.339 0.21 0.088 0.444 0.168 0.695 0.247s0.511 0.167 0.767 0.268c0.244 0.094 0.479 0.213 0.699 0.356 0.218 0.142 0.395 0.336 0.515 0.565 0.185 0.368 0.244 0.786 0.169 1.191s-0.282 0.773-0.587 1.050c-0.452 0.36-1.019 0.545-1.596 0.524h-0.034c-0.443 0.007-0.882-0.082-1.289-0.259s-0.769-0.441-1.066-0.771z"></path>
<path fill="#fff" style="fill: var(--color2, #fff)" d="M137.382 31.891h-0.922v-6.53h0.922v6.53z"></path>
<path fill="#fff" style="fill: var(--color2, #fff)" d="M139.355 30.961l0.582-0.591c0.229 0.242 0.505 0.436 0.811 0.568s0.636 0.201 0.97 0.202c0.345 0.015 0.685-0.081 0.972-0.272 0.118-0.087 0.214-0.201 0.278-0.333s0.095-0.278 0.090-0.425c0.003-0.201-0.067-0.395-0.196-0.549-0.142-0.161-0.318-0.288-0.515-0.373-0.227-0.1-0.459-0.188-0.695-0.264-0.255-0.080-0.507-0.168-0.763-0.272-0.241-0.096-0.474-0.212-0.694-0.348-0.215-0.132-0.393-0.316-0.515-0.536-0.139-0.247-0.206-0.526-0.197-0.808-0.005-0.234 0.044-0.466 0.143-0.678 0.098-0.212 0.244-0.399 0.427-0.545 0.445-0.342 0.998-0.513 1.558-0.482 0.407 0.002 0.81 0.089 1.181 0.255 0.395 0.176 0.737 0.451 0.993 0.8l-0.654 0.494c-0.164-0.227-0.385-0.406-0.641-0.519-0.262-0.122-0.547-0.187-0.837-0.193h-0.046c-0.313-0.013-0.623 0.068-0.889 0.235-0.105 0.064-0.192 0.153-0.253 0.26s-0.094 0.228-0.094 0.351c-0.003 0.186 0.068 0.365 0.196 0.498 0.146 0.148 0.321 0.264 0.515 0.339 0.213 0.088 0.444 0.168 0.7 0.247 0.255 0.080 0.507 0.167 0.763 0.268 0.245 0.094 0.481 0.213 0.703 0.356 0.217 0.143 0.393 0.337 0.515 0.565 0.186 0.368 0.244 0.786 0.169 1.191s-0.282 0.774-0.587 1.050c-0.451 0.36-1.015 0.546-1.593 0.524h-0.033c-0.444 0.007-0.883-0.081-1.29-0.259s-0.769-0.441-1.065-0.772z"></path>
<path fill="#fff" style="fill: var(--color2, #fff)" d="M145.341 25.361h4.913v0.888h-1.982v5.642h-0.917v-5.642h-2.014v-0.888z"></path>
<path fill="#fff" style="fill: var(--color2, #fff)" d="M154.902 29.319l-0.992-2.718-0.985 2.718h1.977zM153.407 25.357h1.002l2.391 6.53h-0.989l-0.628-1.675h-2.513l-0.615 1.675h-1.022l2.374-6.53z"></path>
<path fill="#fff" style="fill: var(--color2, #fff)" d="M158.559 31.891v-6.53h0.922l3.652 4.913v-4.913h0.93v6.53h-0.93l-3.652-4.917v4.917h-0.922z"></path>
<path fill="#fff" style="fill: var(--color2, #fff)" d="M165.893 25.361h4.909v0.888h-2.006v5.642h-0.922v-5.642h-1.994l0.013-0.888z"></path>
<path fill="#fff" style="fill: var(--color2, #fff)" d="M175.963 25.361h4.213v0.888h-3.3v1.914h3.12v0.884h-3.12v2.844h-0.913v-6.53z"></path>
<path fill="#fff" style="fill: var(--color2, #fff)" d="M182.652 28.62c-0.001 0.319 0.061 0.635 0.181 0.931 0.122 0.295 0.301 0.564 0.526 0.79s0.493 0.405 0.787 0.528c0.295 0.122 0.611 0.185 0.93 0.185 0.478-0.001 0.945-0.143 1.343-0.409 0.397-0.266 0.707-0.644 0.89-1.085 0.183-0.442 0.231-0.928 0.139-1.397s-0.323-0.9-0.66-1.239c-0.338-0.339-0.768-0.57-1.236-0.664-0.469-0.095-0.955-0.048-1.397 0.133s-0.821 0.49-1.088 0.886c-0.268 0.396-0.412 0.863-0.414 1.341zM182.698 26.258c0.548-0.547 1.27-0.888 2.042-0.963s1.546 0.12 2.189 0.551c0.644 0.431 1.119 1.073 1.343 1.814 0.225 0.742 0.185 1.539-0.112 2.255-0.298 0.716-0.834 1.307-1.518 1.671s-1.473 0.481-2.233 0.33c-0.761-0.152-1.444-0.562-1.936-1.162s-0.759-1.351-0.759-2.126c-0.006-0.442 0.077-0.88 0.246-1.287s0.42-0.776 0.738-1.083z"></path>
<path fill="#fff" style="fill: var(--color2, #fff)" d="M192.871 28.565c0.339 0.014 0.67-0.106 0.922-0.335 0.113-0.107 0.204-0.237 0.263-0.382s0.089-0.3 0.084-0.456c0.001-0.151-0.029-0.302-0.089-0.441-0.061-0.139-0.148-0.264-0.259-0.367-0.252-0.229-0.582-0.35-0.922-0.335h-1.537v2.316h1.537zM192.871 25.361c0.294-0.012 0.588 0.036 0.864 0.14 0.275 0.104 0.527 0.263 0.74 0.467 0.199 0.186 0.357 0.412 0.463 0.663s0.158 0.522 0.153 0.794c0.003 0.439-0.143 0.865-0.415 1.21s-0.653 0.585-1.081 0.684l1.587 2.572h-1.072l-1.487-2.425h-1.302v2.425h-0.922v-6.53h2.471z"></path>
<path fill="#fff" style="fill: var(--color2, #fff)" d="M202.835 28.565c0.34 0.014 0.671-0.106 0.922-0.335 0.114-0.107 0.204-0.237 0.263-0.382 0.061-0.144 0.089-0.3 0.084-0.456 0.002-0.151-0.029-0.302-0.089-0.441s-0.148-0.264-0.259-0.367c-0.251-0.229-0.581-0.35-0.922-0.335h-1.541v2.316h1.541zM202.835 25.361c0.294-0.012 0.589 0.036 0.864 0.14 0.276 0.104 0.528 0.263 0.74 0.467 0.196 0.191 0.351 0.419 0.458 0.671 0.106 0.252 0.16 0.522 0.16 0.795s-0.054 0.544-0.16 0.795c-0.107 0.252-0.261 0.48-0.458 0.671-0.211 0.2-0.461 0.356-0.733 0.458-0.273 0.102-0.563 0.149-0.854 0.137h-1.558v2.425h-0.922v-6.559h2.463z"></path>
<path fill="#fff" style="fill: var(--color2, #fff)" d="M209.73 29.319l-0.993-2.718-0.989 2.718h1.982zM208.239 25.357h1.001l2.388 6.53h-1.002l-0.628-1.675h-2.513l-0.615 1.675h-1.022l2.391-6.53z"></path>
<path fill="#fff" style="fill: var(--color2, #fff)" d="M212.389 25.361h4.909v0.888h-2.011v5.642h-0.921v-5.642h-1.995l0.017-0.888z"></path>
<path fill="#fff" style="fill: var(--color2, #fff)" d="M219.124 25.361h4.034v0.838h-3.121v1.906h2.932v0.838h-2.932v2.052h3.209v0.892h-4.126l0.004-6.526z"></path>
<path fill="#fff" style="fill: var(--color2, #fff)" d="M225.307 31.891v-6.53h0.922l3.648 4.913v-4.913h0.93v6.53h-0.93l-3.648-4.917v4.917h-0.922z"></path>
<path fill="#fff" style="fill: var(--color2, #fff)" d="M232.633 25.361h4.913v0.888h-1.998v5.642h-0.922v-5.642h-1.994v-0.888z"></path>
<path fill="#fff" style="fill: var(--color2, #fff)" d="M238.97 30.961l0.582-0.591c0.229 0.242 0.505 0.435 0.811 0.568s0.636 0.201 0.97 0.203c0.345 0.016 0.685-0.080 0.972-0.272 0.119-0.086 0.215-0.2 0.281-0.332s0.097-0.279 0.092-0.426c0.002-0.201-0.067-0.395-0.196-0.549-0.144-0.159-0.32-0.286-0.515-0.373-0.228-0.1-0.462-0.188-0.7-0.264-0.252-0.080-0.507-0.168-0.758-0.272-0.243-0.095-0.477-0.211-0.7-0.348-0.213-0.133-0.39-0.317-0.515-0.536-0.135-0.247-0.204-0.526-0.196-0.808-0.004-0.234 0.045-0.466 0.145-0.678 0.099-0.212 0.246-0.398 0.429-0.545 0.443-0.342 0.994-0.513 1.554-0.482 0.406 0.002 0.809 0.089 1.181 0.255 0.396 0.176 0.739 0.452 0.996 0.8l-0.653 0.494c-0.17-0.224-0.395-0.399-0.654-0.507-0.262-0.122-0.548-0.187-0.837-0.193h-0.046c-0.311-0.014-0.621 0.068-0.884 0.235-0.106 0.064-0.192 0.153-0.253 0.26s-0.094 0.228-0.095 0.351c-0.002 0.092 0.014 0.184 0.048 0.269s0.084 0.164 0.149 0.229c0.144 0.15 0.32 0.266 0.515 0.339 0.209 0.088 0.444 0.167 0.695 0.247 0.251 0.080 0.511 0.168 0.766 0.268 0.245 0.094 0.48 0.213 0.7 0.356 0.217 0.142 0.395 0.336 0.515 0.565 0.138 0.257 0.206 0.546 0.197 0.838 0.010 0.265-0.042 0.529-0.15 0.772-0.108 0.242-0.27 0.457-0.474 0.627-0.452 0.36-1.019 0.545-1.597 0.524h-0.033c-0.444 0.007-0.883-0.082-1.289-0.259-0.406-0.178-0.77-0.441-1.066-0.771z"></path>
<path fill="#acacac" style="fill: var(--color1, #acacac)" d="M12.813 31.832h-11.389c-0.253 0.001-0.501-0.065-0.72-0.191s-0.4-0.309-0.525-0.528c-0.125-0.22-0.189-0.468-0.186-0.721s0.073-0.5 0.203-0.716l16.138-27.552c0.125-0.214 0.304-0.392 0.52-0.516s0.459-0.188 0.708-0.188h11.003c0.251-0.003 0.498 0.060 0.716 0.183s0.401 0.301 0.528 0.517c0.128 0.216 0.196 0.462 0.198 0.712s-0.062 0.498-0.186 0.716l-15.774 27.552c-0.123 0.22-0.302 0.404-0.519 0.533s-0.464 0.198-0.716 0.2z"></path>
<path fill="#fff" style="fill: var(--color2, #fff)" d="M46.199 3.543l-15.753 27.556c-0.121 0.221-0.299 0.405-0.516 0.534s-0.464 0.198-0.716 0.199h-11.393c-0.25-0.001-0.495-0.068-0.71-0.194s-0.394-0.306-0.518-0.523c-0.124-0.217-0.189-0.462-0.188-0.712s0.068-0.495 0.193-0.711l6.107-10.454 10.015-17.114c0.125-0.215 0.304-0.393 0.519-0.516s0.46-0.188 0.708-0.188h11.020c0.248 0 0.492 0.066 0.708 0.19s0.394 0.303 0.519 0.518c0.125 0.215 0.191 0.459 0.192 0.707s-0.063 0.493-0.187 0.709z"></path>
<path fill="#fff" style="fill: var(--color2, #fff)" d="M45.747 31.832h-11.401c-0.251 0.001-0.497-0.065-0.714-0.19s-0.397-0.306-0.522-0.523c-0.125-0.217-0.19-0.464-0.188-0.714s0.069-0.496 0.196-0.712l16.134-27.569c0.124-0.214 0.303-0.392 0.518-0.515s0.458-0.188 0.706-0.189h11.024c0.249-0 0.494 0.065 0.71 0.19s0.395 0.303 0.52 0.519c0.125 0.216 0.191 0.46 0.191 0.709s-0.065 0.494-0.189 0.71l-15.749 27.552c-0.127 0.22-0.31 0.402-0.531 0.528s-0.471 0.191-0.725 0.188z"></path>
<path fill="#acacac" style="fill: var(--color1, #acacac)" d="M46.199 3.543l-6.974 12.205c-0.606 1.059-1.481 1.94-2.536 2.553s-2.254 0.936-3.474 0.936h-10.509l10.015-17.114c0.125-0.215 0.304-0.393 0.519-0.516s0.46-0.188 0.708-0.188h11.020c0.248 0 0.492 0.066 0.708 0.19s0.394 0.303 0.519 0.518c0.125 0.215 0.191 0.459 0.192 0.707s-0.063 0.493-0.187 0.709z"></path>
</symbol>

<symbol id="icon-Rectangle-7" viewBox="0 0 391 32">
<path fill="#fff" style="fill: var(--color1, #fff)" d="M0 31.898l391.338-31.898v31.898h-391.338z"></path>
</symbol>

<symbol id="icon-Rectangle-2011" viewBox="0 0 391 32">
<path fill="#f6f8fa" style="fill: var(--color1, #f6f8fa)" d="M391.338 32l-391.338-32v32h391.338z"></path>
</symbol>

<symbol id="icon-Frame-8" viewBox="0 0 44 32">
<path fill="#3e82be" style="fill: var(--color1, #3e82be)" d="M12.677 16.002c-1.805-1.991-3.542-3.909-5.283-5.825-2.221-2.446-4.443-4.891-6.669-7.333-0.495-0.543-0.944-1.097-0.607-1.892 0.346-0.817 1.045-0.949 1.84-0.945 2.605 0.013 5.211 0.022 7.815-0.006 0.777-0.008 1.357 0.241 1.877 0.817 4.181 4.629 8.381 9.241 12.572 13.86 0.958 1.056 0.961 1.59 0.008 2.641-4.209 4.642-8.427 9.276-12.631 13.922-0.475 0.525-1.016 0.764-1.73 0.759-2.662-0.020-5.325-0.015-7.987-0.004-0.77 0.003-1.427-0.164-1.761-0.934-0.326-0.752 0.057-1.303 0.537-1.831 3.699-4.066 7.396-8.135 11.093-12.203 0.286-0.314 0.57-0.631 0.926-1.026z"></path>
<path fill="#3e82be" style="fill: var(--color1, #3e82be)" d="M31.735 15.999c-2.437-2.686-4.808-5.299-7.18-7.911-1.608-1.771-3.214-3.544-4.829-5.31-0.484-0.529-0.867-1.082-0.55-1.83 0.326-0.77 0.984-0.945 1.757-0.941 2.662 0.011 5.325 0.017 7.987-0.004 0.714-0.006 1.254 0.23 1.73 0.756 4.242 4.688 8.5 9.363 12.747 14.047 0.801 0.883 0.804 1.506 0.005 2.388-4.247 4.684-8.504 9.359-12.747 14.047-0.475 0.525-1.014 0.765-1.729 0.76-2.662-0.021-5.325-0.015-7.987-0.004-0.772 0.003-1.43-0.166-1.761-0.936-0.321-0.748 0.058-1.3 0.541-1.831 3.662-4.023 7.318-8.051 10.976-12.077 0.324-0.356 0.645-0.715 1.039-1.152z"></path>
</symbol>

<symbol id="icon-Vector-2" viewBox="0 0 50 32">
<path fill="none" stroke="#bd2327" style="stroke: var(--color1, #bd2327)" stroke-linejoin="miter" stroke-linecap="butt" stroke-miterlimit="4" stroke-width="7.1111" d="M3.556 3.556l21.333 21.333 21.333-21.333"></path>
</symbol>

<symbol id="icon-Frame-9" viewBox="0 0 30 32">
<path fill="#fff" style="fill: var(--color1, #fff)" d="M26.096 14.012l-2.125-2.146-7.302 7.12v-18.985h-3.036v18.985l-7.272-7.12-2.125 2.146 10.915 10.687 10.945-10.687z"></path>
<path fill="#fff" style="fill: var(--color1, #fff)" d="M30.316 32h-30.316v-12.092h3.036v9.069h24.244v-9.069h3.036v12.092z"></path>
</symbol>
</defs>
</svg>
