<svg aria-hidden="true" style="position: absolute; width: 0; height: 0; overflow: hidden;" version="1.1" xmlns="http://www.w3.org/2000/svg" xmlns:xlink="http://www.w3.org/1999/xlink">
<defs>
<symbol id="icon-arrow" viewBox="0 0 36 32">
<path fill="#fff" style="fill: var(--color1, #fff)" d="M32 13.227h-32v4.267h32v-4.267z"></path>
<path fill="#fff" style="fill: var(--color1, #fff)" d="M19.776 30.72l-3.029-2.987 12.139-12.373-12.139-12.373 3.029-2.987 15.083 15.36-15.083 15.36z"></path>
</symbol>
<symbol id="icon-man" viewBox="0 0 31 32">
<path fill="#57a6eb" style="fill: var(--color2, #57a6eb)" d="M20.092 17.27c1.74-1.038 3.093-2.623 3.851-4.511s0.879-3.974 0.344-5.937c-0.535-1.963-1.696-3.696-3.304-4.93s-3.575-1.903-5.598-1.903-3.99 0.669-5.598 1.903c-1.608 1.235-2.769 2.967-3.304 4.93s-0.414 4.049 0.344 5.937c0.758 1.887 2.111 3.472 3.851 4.511-3.099 1.003-5.803 2.969-7.721 5.616s-2.953 5.838-2.956 9.115h2.051c0-3.559 1.405-6.972 3.905-9.489s5.892-3.93 9.428-3.93 6.928 1.414 9.428 3.93c2.501 2.517 3.905 5.93 3.905 9.489h2.051c-0.002-3.276-1.037-6.468-2.956-9.115s-4.622-4.613-7.721-5.616zM8.205 9.29c0-1.429 0.421-2.826 1.21-4.014s1.91-2.114 3.222-2.661c1.312-0.547 2.755-0.69 4.148-0.411s2.672 0.967 3.676 1.978 1.688 2.298 1.965 3.7c0.277 1.402 0.135 2.855-0.409 4.175s-1.464 2.449-2.644 3.243c-1.181 0.794-2.569 1.218-3.989 1.218-1.904 0-3.73-0.761-5.077-2.116s-2.103-3.193-2.103-5.109z"></path>
</symbol>
<symbol id="icon-Frame-3" viewBox="0 0 32 32">
<path fill="#57a6eb" style="fill: var(--color2, #57a6eb)" d="M32.011 30.466l-9.948-10.104c1.763-2.168 2.73-4.866 2.742-7.65s-0.931-5.491-2.675-7.674c-1.744-2.183-4.185-3.713-6.921-4.339s-5.607-0.311-8.14 0.894-4.576 3.228-5.796 5.736c-1.22 2.509-1.543 5.354-0.916 8.068s2.166 5.137 4.365 6.87c2.199 1.733 4.927 2.673 7.735 2.666 2.967-0.004 5.832-1.070 8.069-3.003l9.948 10.071 1.537-1.534zM12.413 22.74c-2.057 0.031-4.077-0.547-5.803-1.658s-3.079-2.707-3.887-4.583-1.035-3.948-0.652-5.952c0.383-2.004 1.359-3.85 2.804-5.303s3.293-2.446 5.309-2.854c2.016-0.408 4.109-0.212 6.012 0.563s3.531 2.094 4.676 3.789c1.145 1.695 1.755 3.689 1.753 5.73 0.015 2.703-1.052 5.302-2.967 7.227s-4.521 3.019-7.247 3.042z"></path>
</symbol>
<symbol id="icon-phone" viewBox="0 0 32 32">
<path fill="#fff" style="fill: var(--color1, #fff)" opacity="0.35" d="M20.849 22.692c0.271-0.13 0.528-0.288 0.767-0.473 0.74-0.704 1.444-1.436 2.166-2.158 0.094-0.143 0.218-0.264 0.364-0.354s0.309-0.147 0.48-0.166c0.17-0.020 0.342-0.001 0.505 0.053s0.311 0.144 0.434 0.262l5.723 3.673c0.164 0.069 0.311 0.174 0.429 0.308s0.203 0.293 0.249 0.466c0.046 0.172 0.053 0.352 0.019 0.528s-0.108 0.34-0.215 0.482l-2.674 5.751c-0.437 0.892-0.731 1.052-1.72 0.892-7.532-1.016-13.665-4.645-18.817-10.084-3.888-3.989-6.631-8.95-7.942-14.364-0.241-1.008-0.374-2.042-0.544-3.067-0.069-0.288-0.027-0.591 0.116-0.851s0.379-0.455 0.659-0.549c1.997-0.892 3.984-1.881 5.981-2.809 0.139-0.099 0.298-0.164 0.465-0.192s0.34-0.018 0.503 0.030c0.163 0.048 0.313 0.133 0.439 0.247s0.224 0.256 0.287 0.414c1.23 1.902 2.457 3.81 3.681 5.724 0.12 0.123 0.212 0.27 0.268 0.433s0.075 0.335 0.057 0.505c-0.019 0.171-0.075 0.335-0.165 0.481s-0.211 0.27-0.355 0.364c-0.677 0.678-1.328 1.382-2.041 2.024-0.236 0.204-0.407 0.471-0.494 0.77s-0.086 0.617 0.004 0.915c0.716 3.159 2.513 5.969 5.081 7.944 1.6 1.345 3.513 2.265 5.562 2.675 0.152 0.045 0.374 0.062 0.731 0.125z"></path>
<path fill="#fff" style="fill: var(--color1, #fff)" opacity="0.35" d="M16.562 0c3.662 0.149 7.162 1.548 9.919 3.963s4.604 5.702 5.234 9.313c0.125 0.821 0.205 1.649 0.241 2.479 0.031 0.16 0.027 0.325-0.011 0.483s-0.109 0.307-0.208 0.436c-0.099 0.129-0.225 0.235-0.369 0.312s-0.302 0.122-0.464 0.133c-0.677 0-1.15-0.49-1.159-1.337-0.011-2.384-0.67-4.721-1.908-6.758-1.164-2.024-2.83-3.714-4.839-4.904s-4.29-1.841-6.624-1.89c-0.16 0-0.33 0-0.499 0-0.281-0.031-0.541-0.164-0.731-0.375s-0.294-0.484-0.295-0.767c0.014-0.301 0.146-0.585 0.368-0.788s0.516-0.311 0.817-0.299h0.526z"></path>
<path fill="#fff" style="fill: var(--color1, #fff)" opacity="0.35" d="M25.948 16.941c-0.171 0.076-0.357 0.115-0.544 0.115s-0.372-0.039-0.544-0.115c-0.508-0.178-0.579-0.695-0.597-1.195-0.050-1.834-0.711-3.599-1.879-5.014s-2.775-2.399-4.566-2.796c-0.553-0.107-1.113-0.17-1.676-0.187-0.749-0.062-1.239-0.499-1.23-1.141 0.009-0.156 0.049-0.309 0.119-0.45s0.167-0.265 0.286-0.367c0.119-0.102 0.258-0.178 0.407-0.225s0.307-0.062 0.463-0.047c2.497 0.053 4.895 0.99 6.766 2.646s3.093 3.922 3.45 6.395c0 0.374 0.080 0.74 0.116 1.114-0.009 0.829-0.241 0.972-0.57 1.266z"></path>
</symbol>
<symbol id="icon-twitter" viewBox="0 0 39 32">
<path fill="#fff" style="fill: var(--color1, #fff)" d="M0 28.578c4.145 0.271 8.247-0.956 11.527-3.45-1.68-0.087-3.294-0.666-4.633-1.662s-2.342-2.362-2.879-3.922c1.169 0.198 2.37 0.111 3.497-0.254-1.819-0.425-3.446-1.422-4.63-2.839-1.222-1.426-1.876-3.235-1.844-5.095 1.11 0.564 2.342 0.861 3.593 0.865-0.403-0.376-0.788-0.724-1.172-1.081-1.119-1.087-1.876-2.48-2.171-3.995-0.165-0.963-0.191-1.944-0.077-2.914 0.096-0.871 0.384-1.712 0.845-2.463 0.163-0.282 0.298-0.066 0.413 0.056 0.471 0.489 0.922 0.996 1.374 1.476 1.756 1.718 3.787 3.144 6.013 4.221 1.705 0.877 3.529 1.511 5.418 1.88 1.182 0.216 2.382 0.357 3.583 0.526 0.115 0 0.231 0 0.375 0s0-0.226 0-0.32c-0.265-1.37-0.169-2.784 0.279-4.108 0.594-1.698 1.737-3.16 3.256-4.165 0.88-0.594 1.878-0.997 2.93-1.185 1.205-0.228 2.446-0.203 3.641 0.075 1.426 0.342 2.728 1.061 3.766 2.078 0.074 0.060 0.16 0.105 0.253 0.131s0.19 0.033 0.285 0.020c0.961-0.282 1.979-0.564 2.94-0.94 0.595-0.207 1.143-0.526 1.719-0.79 0 0 0.077 0 0.221 0-0.616 1.717-1.786 3.192-3.333 4.202 1.441-0.097 2.857-0.415 4.198-0.94 0.015 0.093 0.015 0.189 0 0.282-0.866 1.205-1.912 2.276-3.103 3.177-0.213 0.132-0.385 0.318-0.498 0.538s-0.164 0.466-0.145 0.712c0.050 1.377-0.060 2.755-0.326 4.108-0.31 1.771-0.823 3.502-1.527 5.161-0.851 2.022-1.982 3.92-3.362 5.64-0.89 1.106-1.881 2.132-2.959 3.065-1.172 1.052-2.484 1.944-3.9 2.651-1.103 0.524-2.235 0.989-3.391 1.391-1.119 0.356-2.258 0.651-3.41 0.884-1.953 0.385-3.95 0.508-5.937 0.367-0.995-0.043-1.986-0.146-2.968-0.31-1.375-0.212-2.721-0.571-4.015-1.072-1.251-0.451-2.457-1.014-3.602-1.683-0.087-0.064-0.167-0.137-0.24-0.216v-0.103z"></path>
</symbol>
<symbol id="icon-in" viewBox="0 0 34 32">
<path fill="#fff" style="fill: var(--color1, #fff)" d="M34.133 32h-7.366v-0.818c0-3.482 0-7.025 0-10.533-0.004-0.799-0.11-1.594-0.314-2.368-0.14-0.589-0.434-1.132-0.856-1.577s-0.955-0.776-1.549-0.96-1.226-0.216-1.836-0.092c-0.61 0.124-1.176 0.4-1.643 0.8-0.514 0.39-0.925 0.893-1.201 1.466s-0.409 1.201-0.389 1.834c0 3.787 0 7.565 0 11.317v0.87h-7.303v-21.406h7.294v2.864c0.519-0.61 1.074-1.192 1.662-1.741 1.039-0.811 2.267-1.362 3.578-1.604s2.662-0.169 3.936 0.213c1.274 0.383 2.432 1.063 3.371 1.981s1.631 2.046 2.015 3.284c0.278 0.914 0.413 1.863 0.611 2.803l-0.009 13.667z"></path>
<path fill="#fff" style="fill: var(--color1, #fff)" d="M0.198 10.516h7.258v21.441h-7.258v-21.441z"></path>
<path fill="#fff" style="fill: var(--color1, #fff)" d="M3.898 7.556c2.153 0 3.898-1.691 3.898-3.778s-1.745-3.778-3.898-3.778c-2.153 0-3.898 1.691-3.898 3.778s1.745 3.778 3.898 3.778z"></path>
</symbol>
<symbol id="icon-facebook" viewBox="0 0 17 32">
<path fill="#fff" style="fill: var(--color1, #fff)" d="M10.629 32h-6.165c0-0.22 0-0.448 0-0.668v-15.808h-4.464v-5.433h4.449c0-0.235 0-2.503 0-4.046-0.032-1.18 0.312-2.343 0.988-3.34s1.654-1.782 2.808-2.256c0.533-0.244 1.109-0.396 1.701-0.448h7.121v5.476h-4.418c-0.261-0.026-0.525 0.003-0.772 0.086s-0.472 0.215-0.658 0.389c-0.186 0.174-0.327 0.384-0.415 0.616s-0.119 0.479-0.091 0.723c0 1.060 0 2.517 0 2.844h6.354c0 0.164-0.38 3.556-0.509 4.978 0 0.327-0.129 0.434-0.493 0.434-1.306 0-4.882 0-5.421 0-0.015 5.077-0.015 11.349-0.015 16.455z"></path>
</symbol>
<symbol id="icon-Vector-3" viewBox="0 0 53 32">
<path fill="none" stroke="#fff" style="stroke: var(--color1, #fff)" stroke-linejoin="miter" stroke-linecap="butt" stroke-miterlimit="4" stroke-width="5.3333" d="M5.333 5.333l21.333 21.333 21.333-21.333"></path>
</symbol>
<symbol id="logo" viewBox="0 0 244 32">
<path fill="#acacac" style="fill: var(--color1, #acacac)" d="M80.080 10.949c0.504 0.024 1.008-0.053 1.483-0.226s0.91-0.438 1.281-0.78c0.337-0.313 0.605-0.693 0.785-1.116s0.27-0.879 0.262-1.339c0.006-0.456-0.084-0.908-0.264-1.327s-0.447-0.794-0.783-1.103c-0.371-0.342-0.807-0.607-1.281-0.78s-0.979-0.249-1.483-0.226h-4.607v6.894h4.607zM80.134 1.34c0.872-0.036 1.742 0.102 2.559 0.407s1.567 0.768 2.203 1.365c0.596 0.56 1.068 1.239 1.385 1.993s0.471 1.566 0.454 2.384c0.017 0.819-0.138 1.632-0.455 2.387s-0.788 1.436-1.384 1.998c-0.634 0.601-1.382 1.069-2.2 1.375s-1.689 0.446-2.562 0.409h-4.67v7.284h-2.764v-19.602h7.435z"></path>
<path fill="#acacac" style="fill: var(--color1, #acacac)" d="M92.26 17.068c0.697 0.696 1.584 1.17 2.549 1.362s1.966 0.094 2.876-0.282 1.688-1.013 2.237-1.831c0.548-0.818 0.842-1.779 0.845-2.764 0.010-0.659-0.115-1.313-0.366-1.922s-0.624-1.161-1.096-1.621c-0.458-0.468-1.005-0.84-1.609-1.094s-1.252-0.385-1.907-0.385-1.303 0.131-1.907 0.385c-0.604 0.254-1.151 0.626-1.609 1.094-0.471 0.461-0.843 1.013-1.094 1.622s-0.376 1.263-0.367 1.922c-0.011 0.654 0.112 1.303 0.362 1.907s0.619 1.151 1.088 1.607zM90.274 8.184c0.638-0.712 1.42-1.279 2.295-1.663s1.822-0.577 2.777-0.565c1.163-0.005 2.304 0.322 3.288 0.942 0.954 0.565 1.724 1.394 2.216 2.387l0.134-3.116h2.412v14.773h-2.412l-0.134-3.083c-0.498 0.979-1.267 1.793-2.216 2.346-0.987 0.612-2.127 0.933-3.288 0.926-0.957 0.011-1.905-0.182-2.782-0.565s-1.662-0.949-2.303-1.659c-1.377-1.433-2.13-3.353-2.094-5.34-0.017-0.99 0.162-1.974 0.525-2.896s0.905-1.762 1.594-2.474z"></path>
<path fill="#acacac" style="fill: var(--color1, #acacac)" d="M105.918 6.17h2.069l0.323-4.829h2.198v4.829h3.543v2.362h-3.543v6.873c-0.057 0.857 0.201 1.706 0.724 2.387 0.249 0.278 0.556 0.498 0.899 0.642s0.715 0.212 1.087 0.195c0.384 0.002 0.766-0.066 1.126-0.201l0.674 2.333c-0.679 0.287-1.411 0.43-2.148 0.419-0.662 0.025-1.322-0.087-1.938-0.329s-1.175-0.609-1.644-1.078c-0.921-0.938-1.381-2.383-1.381-4.335v-6.907h-1.99v-2.362z"></path>
<path fill="#acacac" style="fill: var(--color1, #acacac)" d="M118.953 12.616h9.475c-0.027-0.567-0.166-1.123-0.412-1.635-0.244-0.512-0.589-0.97-1.013-1.347-0.905-0.82-2.092-1.257-3.313-1.219-1.204-0.032-2.373 0.405-3.262 1.219-0.866 0.761-1.395 1.833-1.475 2.982zM118.363 8.184c1.409-1.408 3.321-2.199 5.313-2.199s3.903 0.791 5.313 2.199c0.699 0.7 1.249 1.534 1.618 2.451s0.549 1.9 0.53 2.889c0 0.071-0.025 0.486-0.080 1.257h-12.066c0.191 1.117 0.801 2.119 1.705 2.802 1.123 0.845 2.526 1.234 3.924 1.088s2.69-0.816 3.615-1.875l2.119 1.311c-0.727 0.956-1.676 1.721-2.765 2.228-1.109 0.549-2.331 0.836-3.568 0.838-1.034 0.026-2.061-0.158-3.021-0.541s-1.831-0.957-2.563-1.688c-0.726-0.695-1.302-1.533-1.691-2.462-0.387-0.928-0.579-1.927-0.562-2.933-0.014-0.993 0.174-1.978 0.551-2.896 0.379-0.918 0.939-1.75 1.647-2.445z"></path>
<path fill="#acacac" style="fill: var(--color1, #acacac)" d="M134.098 20.942v-14.773h2.417l0.134 2.605c0.42-0.832 1.055-1.536 1.838-2.040 0.837-0.53 1.812-0.801 2.802-0.779 0.825-0.030 1.646 0.125 2.402 0.452 0.757 0.327 1.433 0.82 1.975 1.441 1.117 1.262 1.676 3.119 1.676 5.571v7.522h-2.63v-7.539c0-1.596-0.373-2.806-1.127-3.64-0.367-0.392-0.811-0.705-1.303-0.918s-1.024-0.324-1.562-0.324c-0.537 0-1.068 0.11-1.561 0.324s-0.937 0.526-1.303 0.918c-0.763 0.838-1.14 2.040-1.14 3.652v7.527h-2.618z"></path>
<path fill="#acacac" style="fill: var(--color1, #acacac)" d="M149.185 6.17h2.065l0.322-4.829h2.199v4.829h3.543v2.362h-3.543v6.873c-0.057 0.857 0.201 1.706 0.724 2.387 0.249 0.278 0.556 0.498 0.898 0.642 0.343 0.145 0.716 0.212 1.088 0.195 0.385 0.006 0.768-0.058 1.131-0.188l0.67 2.333c-0.679 0.288-1.411 0.43-2.148 0.419-0.662 0.025-1.322-0.087-1.938-0.329s-1.175-0.609-1.644-1.078c-0.922-0.938-1.381-2.383-1.381-4.335v-6.919h-1.986v-2.362z"></path>
<path fill="#fff" style="fill: var(--color2, #fff)" d="M161.341 20.942v-19.602h2.898l7.435 12.616 7.405-12.616h2.932v19.602h-2.765v-14.986l-6.768 11.514h-1.638l-6.735-11.514v14.986h-2.764z"></path>
<path fill="#fff" style="fill: var(--color2, #fff)" d="M189.139 17.068c0.697 0.696 1.584 1.17 2.549 1.362s1.966 0.094 2.877-0.282c0.91-0.376 1.687-1.013 2.236-1.831s0.843-1.779 0.845-2.764c0.010-0.659-0.114-1.313-0.366-1.922s-0.624-1.161-1.095-1.621c-0.459-0.468-1.005-0.839-1.609-1.093-0.603-0.254-1.251-0.384-1.906-0.384-0.654 0-1.302 0.131-1.906 0.384-0.603 0.254-1.15 0.625-1.607 1.093-0.473 0.46-0.846 1.012-1.098 1.621-0.253 0.609-0.378 1.263-0.369 1.923-0.011 0.654 0.113 1.303 0.362 1.907 0.25 0.604 0.62 1.151 1.088 1.607zM187.154 8.184c0.638-0.712 1.42-1.279 2.294-1.663 0.876-0.384 1.822-0.577 2.778-0.565 1.164-0.005 2.304 0.322 3.287 0.942 0.955 0.565 1.724 1.394 2.217 2.387l0.133-3.116h2.413v14.773h-2.413l-0.133-3.083c-0.498 0.979-1.267 1.793-2.217 2.346-0.987 0.612-2.126 0.933-3.287 0.926-0.957 0.011-1.905-0.182-2.782-0.565s-1.662-0.949-2.303-1.659c-1.377-1.433-2.13-3.353-2.094-5.34-0.017-0.99 0.161-1.974 0.525-2.896s0.906-1.762 1.595-2.474z"></path>
<path fill="#fff" style="fill: var(--color2, #fff)" d="M204.117 20.942v-20.942h2.513v12.775l6.601-6.605h3.113l-5.663 5.881 6.4 8.892h-3.087l-4.989-6.932-2.391 2.325v4.607h-2.496z"></path>
<path fill="#fff" style="fill: var(--color2, #fff)" d="M220.218 12.616h9.474c-0.026-0.567-0.164-1.122-0.409-1.634-0.243-0.512-0.588-0.97-1.011-1.348-0.905-0.82-2.092-1.257-3.313-1.219-1.21-0.036-2.386 0.401-3.279 1.219-0.858 0.76-1.382 1.826-1.462 2.97zM219.628 8.172c1.409-1.408 3.321-2.199 5.313-2.199 1.991 0 3.903 0.791 5.313 2.199 0.699 0.7 1.248 1.534 1.618 2.451 0.369 0.918 0.549 1.9 0.53 2.889 0 0.071-0.026 0.486-0.080 1.257h-12.075c0.188 1.117 0.796 2.12 1.7 2.802 1.123 0.845 2.526 1.234 3.924 1.088s2.69-0.816 3.615-1.875l2.119 1.311c-0.727 0.956-1.676 1.721-2.765 2.228-1.109 0.549-2.331 0.836-3.568 0.838-1.034 0.026-2.061-0.157-3.021-0.541s-1.831-0.957-2.563-1.688c-0.726-0.695-1.302-1.533-1.691-2.462-0.387-0.928-0.579-1.927-0.562-2.933-0.014-0.993 0.174-1.978 0.551-2.896 0.379-0.918 0.939-1.75 1.647-2.445z"></path>
<path fill="#fff" style="fill: var(--color2, #fff)" d="M235.359 6.17h2.413l0.163 2.417c0.413-0.788 1.054-1.433 1.839-1.851 0.839-0.439 1.775-0.661 2.722-0.645h0.134c0.369 0.001 0.737 0.027 1.102 0.080l-0.537 2.513c-0.169-0.032-0.339-0.050-0.511-0.054-0.626-0.021-1.249 0.084-1.833 0.31-0.585 0.226-1.116 0.568-1.565 1.005-0.882 0.877-1.325 2.263-1.327 4.159v6.84h-2.602v-14.773z"></path>
<path fill="#fff" style="fill: var(--color2, #fff)" d="M73.772 26.266v4.729h1.081c0.331 0.012 0.661-0.043 0.97-0.162s0.59-0.301 0.827-0.533c0.218-0.22 0.39-0.482 0.505-0.77s0.171-0.596 0.166-0.905c0.007-0.312-0.051-0.622-0.17-0.91s-0.297-0.549-0.521-0.765c-0.236-0.229-0.516-0.408-0.824-0.526s-0.636-0.171-0.965-0.157h-1.068zM74.852 25.361c0.454-0.016 0.906 0.059 1.33 0.22s0.812 0.405 1.141 0.718c0.612 0.621 0.955 1.457 0.955 2.329s-0.343 1.708-0.955 2.329c-0.33 0.315-0.721 0.561-1.149 0.721s-0.883 0.233-1.339 0.213h-2.002v-6.53h2.019z"></path>
<path fill="#fff" style="fill: var(--color2, #fff)" d="M81.185 31.891h-0.921v-6.53h0.921v6.53z"></path>
<path fill="#fff" style="fill: var(--color2, #fff)" d="M84.134 26.258c0.308-0.318 0.678-0.57 1.088-0.739s0.849-0.253 1.292-0.246c0.519-0.002 1.031 0.117 1.495 0.348 0.458 0.228 0.858 0.556 1.173 0.959l-0.838 0.498c-0.225-0.271-0.507-0.488-0.825-0.638s-0.666-0.228-1.018-0.229c-0.318-0.004-0.634 0.056-0.928 0.177s-0.561 0.3-0.785 0.527c-0.229 0.22-0.41 0.485-0.532 0.778s-0.182 0.609-0.176 0.926c-0.002 0.319 0.059 0.636 0.18 0.931s0.299 0.564 0.524 0.79 0.493 0.406 0.788 0.528c0.295 0.122 0.611 0.185 0.93 0.184 0.57 0.020 1.125-0.181 1.55-0.561 0.411-0.382 0.654-0.91 0.678-1.47h-2.446v-0.838h3.443c0.027 0.151 0.040 0.303 0.038 0.457 0.018 0.446-0.053 0.891-0.209 1.308s-0.394 0.8-0.7 1.125c-0.306 0.312-0.674 0.557-1.080 0.718s-0.841 0.236-1.278 0.22c-0.668 0.006-1.323-0.187-1.88-0.556s-0.992-0.895-1.248-1.513c-0.256-0.617-0.321-1.297-0.188-1.952s0.46-1.255 0.937-1.723z"></path>
<path fill="#fff" style="fill: var(--color2, #fff)" d="M92.678 31.891h-0.921v-6.53h0.921v6.53z"></path>
<path fill="#fff" style="fill: var(--color2, #fff)" d="M94.505 25.361h4.913v0.888h-1.998v5.642h-0.921v-5.642h-1.994v-0.888z"></path>
<path fill="#fff" style="fill: var(--color2, #fff)" d="M104.050 29.319l-0.993-2.718-0.984 2.718h1.977zM102.555 25.357h1.001l2.412 6.534h-1.001l-0.628-1.675h-2.513l-0.616 1.675h-1.022l2.367-6.534z"></path>
<path fill="#fff" style="fill: var(--color2, #fff)" d="M111.916 31.891h-4.213v-6.53h0.922v5.608h3.292v0.921z"></path>
<path fill="#fff" style="fill: var(--color2, #fff)" d="M120.369 29.319l-0.997-2.714-0.98 2.714h1.978zM118.874 25.357h1.001l2.391 6.53h-1.005l-0.624-1.675h-2.513l-0.62 1.675h-1.019l2.388-6.53z"></path>
<path fill="#fff" style="fill: var(--color2, #fff)" d="M123.628 30.961l0.581-0.591c0.229 0.242 0.506 0.435 0.812 0.568s0.636 0.201 0.969 0.203c0.345 0.016 0.686-0.080 0.972-0.272 0.119-0.086 0.217-0.2 0.282-0.332s0.096-0.279 0.092-0.426c0.002-0.201-0.068-0.395-0.197-0.549-0.144-0.159-0.319-0.286-0.515-0.373-0.228-0.1-0.462-0.188-0.7-0.264-0.251-0.080-0.507-0.168-0.757-0.272-0.243-0.096-0.477-0.212-0.7-0.348-0.213-0.134-0.389-0.318-0.515-0.536-0.137-0.247-0.204-0.526-0.197-0.808-0.004-0.234 0.046-0.466 0.145-0.678s0.246-0.398 0.429-0.545c0.444-0.342 0.995-0.513 1.554-0.482 0.407 0.002 0.81 0.089 1.181 0.255 0.396 0.176 0.739 0.452 0.997 0.8l-0.654 0.494c-0.163-0.227-0.385-0.406-0.64-0.519-0.263-0.122-0.548-0.187-0.838-0.193h-0.046c-0.311-0.013-0.62 0.068-0.883 0.235-0.106 0.064-0.193 0.153-0.254 0.26s-0.094 0.228-0.094 0.351c-0.002 0.186 0.068 0.365 0.196 0.498 0.145 0.15 0.321 0.266 0.515 0.339 0.21 0.088 0.444 0.168 0.695 0.247s0.511 0.167 0.767 0.268c0.245 0.095 0.481 0.214 0.703 0.356 0.214 0.143 0.39 0.337 0.511 0.565 0.138 0.257 0.206 0.546 0.197 0.838 0.010 0.265-0.042 0.529-0.149 0.772-0.109 0.242-0.271 0.457-0.475 0.627-0.452 0.36-1.019 0.545-1.596 0.524h-0.034c-0.443 0.007-0.882-0.082-1.289-0.259s-0.769-0.441-1.065-0.771z"></path>
<path fill="#fff" style="fill: var(--color2, #fff)" d="M129.91 30.961l0.581-0.591c0.229 0.242 0.506 0.435 0.812 0.568s0.636 0.201 0.969 0.203c0.345 0.015 0.686-0.080 0.972-0.272 0.119-0.086 0.215-0.201 0.279-0.333 0.065-0.132 0.095-0.278 0.090-0.425 0.006-0.201-0.064-0.397-0.197-0.549-0.141-0.16-0.316-0.287-0.511-0.373-0.228-0.1-0.462-0.188-0.7-0.264-0.251-0.080-0.507-0.168-0.757-0.272-0.243-0.095-0.478-0.211-0.7-0.348-0.214-0.133-0.391-0.317-0.515-0.536-0.137-0.247-0.204-0.526-0.197-0.808-0.003-0.234 0.046-0.466 0.145-0.678s0.246-0.398 0.429-0.545c0.444-0.342 0.995-0.513 1.554-0.482 0.407 0.002 0.81 0.089 1.181 0.255 0.396 0.176 0.739 0.452 0.997 0.8l-0.654 0.494c-0.164-0.226-0.385-0.405-0.64-0.519-0.263-0.122-0.548-0.187-0.838-0.193h-0.046c-0.311-0.014-0.62 0.068-0.883 0.235-0.107 0.063-0.194 0.153-0.255 0.26s-0.093 0.228-0.093 0.352c-0.002 0.092 0.014 0.184 0.048 0.269 0.033 0.086 0.084 0.164 0.148 0.229 0.145 0.15 0.321 0.266 0.515 0.339 0.21 0.088 0.444 0.168 0.695 0.247s0.511 0.167 0.767 0.268c0.244 0.094 0.479 0.213 0.699 0.356 0.218 0.142 0.395 0.336 0.515 0.565 0.185 0.368 0.244 0.786 0.169 1.191s-0.282 0.773-0.587 1.050c-0.452 0.36-1.019 0.545-1.596 0.524h-0.034c-0.443 0.007-0.882-0.082-1.289-0.259s-0.769-0.441-1.066-0.771z"></path>
<path fill="#fff" style="fill: var(--color2, #fff)" d="M137.382 31.891h-0.922v-6.53h0.922v6.53z"></path>
<path fill="#fff" style="fill: var(--color2, #fff)" d="M139.355 30.961l0.582-0.591c0.229 0.242 0.505 0.436 0.811 0.568s0.636 0.201 0.97 0.202c0.345 0.015 0.685-0.081 0.972-0.272 0.118-0.087 0.214-0.201 0.278-0.333s0.095-0.278 0.090-0.425c0.003-0.201-0.067-0.395-0.196-0.549-0.142-0.161-0.318-0.288-0.515-0.373-0.227-0.1-0.459-0.188-0.695-0.264-0.255-0.080-0.507-0.168-0.763-0.272-0.241-0.096-0.474-0.212-0.694-0.348-0.215-0.132-0.393-0.316-0.515-0.536-0.139-0.247-0.206-0.526-0.197-0.808-0.005-0.234 0.044-0.466 0.143-0.678 0.098-0.212 0.244-0.399 0.427-0.545 0.445-0.342 0.998-0.513 1.558-0.482 0.407 0.002 0.81 0.089 1.181 0.255 0.395 0.176 0.737 0.451 0.993 0.8l-0.654 0.494c-0.164-0.227-0.385-0.406-0.641-0.519-0.262-0.122-0.547-0.187-0.837-0.193h-0.046c-0.313-0.013-0.623 0.068-0.889 0.235-0.105 0.064-0.192 0.153-0.253 0.26s-0.094 0.228-0.094 0.351c-0.003 0.186 0.068 0.365 0.196 0.498 0.146 0.148 0.321 0.264 0.515 0.339 0.213 0.088 0.444 0.168 0.7 0.247 0.255 0.080 0.507 0.167 0.763 0.268 0.245 0.094 0.481 0.213 0.703 0.356 0.217 0.143 0.393 0.337 0.515 0.565 0.186 0.368 0.244 0.786 0.169 1.191s-0.282 0.774-0.587 1.050c-0.451 0.36-1.015 0.546-1.593 0.524h-0.033c-0.444 0.007-0.883-0.081-1.29-0.259s-0.769-0.441-1.065-0.772z"></path>
<path fill="#fff" style="fill: var(--color2, #fff)" d="M145.341 25.361h4.913v0.888h-1.982v5.642h-0.917v-5.642h-2.014v-0.888z"></path>
<path fill="#fff" style="fill: var(--color2, #fff)" d="M154.902 29.319l-0.992-2.718-0.985 2.718h1.977zM153.407 25.357h1.002l2.391 6.53h-0.989l-0.628-1.675h-2.513l-0.615 1.675h-1.022l2.374-6.53z"></path>
<path fill="#fff" style="fill: var(--color2, #fff)" d="M158.559 31.891v-6.53h0.922l3.652 4.913v-4.913h0.93v6.53h-0.93l-3.652-4.917v4.917h-0.922z"></path>
<path fill="#fff" style="fill: var(--color2, #fff)" d="M165.893 25.361h4.909v0.888h-2.006v5.642h-0.922v-5.642h-1.994l0.013-0.888z"></path>
<path fill="#fff" style="fill: var(--color2, #fff)" d="M175.963 25.361h4.213v0.888h-3.3v1.914h3.12v0.884h-3.12v2.844h-0.913v-6.53z"></path>
<path fill="#fff" style="fill: var(--color2, #fff)" d="M182.652 28.62c-0.001 0.319 0.061 0.635 0.181 0.931 0.122 0.295 0.301 0.564 0.526 0.79s0.493 0.405 0.787 0.528c0.295 0.122 0.611 0.185 0.93 0.185 0.478-0.001 0.945-0.143 1.343-0.409 0.397-0.266 0.707-0.644 0.89-1.085 0.183-0.442 0.231-0.928 0.139-1.397s-0.323-0.9-0.66-1.239c-0.338-0.339-0.768-0.57-1.236-0.664-0.469-0.095-0.955-0.048-1.397 0.133s-0.821 0.49-1.088 0.886c-0.268 0.396-0.412 0.863-0.414 1.341zM182.698 26.258c0.548-0.547 1.27-0.888 2.042-0.963s1.546 0.12 2.189 0.551c0.644 0.431 1.119 1.073 1.343 1.814 0.225 0.742 0.185 1.539-0.112 2.255-0.298 0.716-0.834 1.307-1.518 1.671s-1.473 0.481-2.233 0.33c-0.761-0.152-1.444-0.562-1.936-1.162s-0.759-1.351-0.759-2.126c-0.006-0.442 0.077-0.88 0.246-1.287s0.42-0.776 0.738-1.083z"></path>
<path fill="#fff" style="fill: var(--color2, #fff)" d="M192.871 28.565c0.339 0.014 0.67-0.106 0.922-0.335 0.113-0.107 0.204-0.237 0.263-0.382s0.089-0.3 0.084-0.456c0.001-0.151-0.029-0.302-0.089-0.441-0.061-0.139-0.148-0.264-0.259-0.367-0.252-0.229-0.582-0.35-0.922-0.335h-1.537v2.316h1.537zM192.871 25.361c0.294-0.012 0.588 0.036 0.864 0.14 0.275 0.104 0.527 0.263 0.74 0.467 0.199 0.186 0.357 0.412 0.463 0.663s0.158 0.522 0.153 0.794c0.003 0.439-0.143 0.865-0.415 1.21s-0.653 0.585-1.081 0.684l1.587 2.572h-1.072l-1.487-2.425h-1.302v2.425h-0.922v-6.53h2.471z"></path>
<path fill="#fff" style="fill: var(--color2, #fff)" d="M202.835 28.565c0.34 0.014 0.671-0.106 0.922-0.335 0.114-0.107 0.204-0.237 0.263-0.382 0.061-0.144 0.089-0.3 0.084-0.456 0.002-0.151-0.029-0.302-0.089-0.441s-0.148-0.264-0.259-0.367c-0.251-0.229-0.581-0.35-0.922-0.335h-1.541v2.316h1.541zM202.835 25.361c0.294-0.012 0.589 0.036 0.864 0.14 0.276 0.104 0.528 0.263 0.74 0.467 0.196 0.191 0.351 0.419 0.458 0.671 0.106 0.252 0.16 0.522 0.16 0.795s-0.054 0.544-0.16 0.795c-0.107 0.252-0.261 0.48-0.458 0.671-0.211 0.2-0.461 0.356-0.733 0.458-0.273 0.102-0.563 0.149-0.854 0.137h-1.558v2.425h-0.922v-6.559h2.463z"></path>
<path fill="#fff" style="fill: var(--color2, #fff)" d="M209.73 29.319l-0.993-2.718-0.989 2.718h1.982zM208.239 25.357h1.001l2.388 6.53h-1.002l-0.628-1.675h-2.513l-0.615 1.675h-1.022l2.391-6.53z"></path>
<path fill="#fff" style="fill: var(--color2, #fff)" d="M212.389 25.361h4.909v0.888h-2.011v5.642h-0.921v-5.642h-1.995l0.017-0.888z"></path>
<path fill="#fff" style="fill: var(--color2, #fff)" d="M219.124 25.361h4.034v0.838h-3.121v1.906h2.932v0.838h-2.932v2.052h3.209v0.892h-4.126l0.004-6.526z"></path>
<path fill="#fff" style="fill: var(--color2, #fff)" d="M225.307 31.891v-6.53h0.922l3.648 4.913v-4.913h0.93v6.53h-0.93l-3.648-4.917v4.917h-0.922z"></path>
<path fill="#fff" style="fill: var(--color2, #fff)" d="M232.633 25.361h4.913v0.888h-1.998v5.642h-0.922v-5.642h-1.994v-0.888z"></path>
<path fill="#fff" style="fill: var(--color2, #fff)" d="M238.97 30.961l0.582-0.591c0.229 0.242 0.505 0.435 0.811 0.568s0.636 0.201 0.97 0.203c0.345 0.016 0.685-0.080 0.972-0.272 0.119-0.086 0.215-0.2 0.281-0.332s0.097-0.279 0.092-0.426c0.002-0.201-0.067-0.395-0.196-0.549-0.144-0.159-0.32-0.286-0.515-0.373-0.228-0.1-0.462-0.188-0.7-0.264-0.252-0.080-0.507-0.168-0.758-0.272-0.243-0.095-0.477-0.211-0.7-0.348-0.213-0.133-0.39-0.317-0.515-0.536-0.135-0.247-0.204-0.526-0.196-0.808-0.004-0.234 0.045-0.466 0.145-0.678 0.099-0.212 0.246-0.398 0.429-0.545 0.443-0.342 0.994-0.513 1.554-0.482 0.406 0.002 0.809 0.089 1.181 0.255 0.396 0.176 0.739 0.452 0.996 0.8l-0.653 0.494c-0.17-0.224-0.395-0.399-0.654-0.507-0.262-0.122-0.548-0.187-0.837-0.193h-0.046c-0.311-0.014-0.621 0.068-0.884 0.235-0.106 0.064-0.192 0.153-0.253 0.26s-0.094 0.228-0.095 0.351c-0.002 0.092 0.014 0.184 0.048 0.269s0.084 0.164 0.149 0.229c0.144 0.15 0.32 0.266 0.515 0.339 0.209 0.088 0.444 0.167 0.695 0.247 0.251 0.080 0.511 0.168 0.766 0.268 0.245 0.094 0.48 0.213 0.7 0.356 0.217 0.142 0.395 0.336 0.515 0.565 0.138 0.257 0.206 0.546 0.197 0.838 0.010 0.265-0.042 0.529-0.15 0.772-0.108 0.242-0.27 0.457-0.474 0.627-0.452 0.36-1.019 0.545-1.597 0.524h-0.033c-0.444 0.007-0.883-0.082-1.289-0.259-0.406-0.178-0.77-0.441-1.066-0.771z"></path>
<path fill="#acacac" style="fill: var(--color1, #acacac)" d="M12.813 31.832h-11.389c-0.253 0.001-0.501-0.065-0.72-0.191s-0.4-0.309-0.525-0.528c-0.125-0.22-0.189-0.468-0.186-0.721s0.073-0.5 0.203-0.716l16.138-27.552c0.125-0.214 0.304-0.392 0.52-0.516s0.459-0.188 0.708-0.188h11.003c0.251-0.003 0.498 0.060 0.716 0.183s0.401 0.301 0.528 0.517c0.128 0.216 0.196 0.462 0.198 0.712s-0.062 0.498-0.186 0.716l-15.774 27.552c-0.123 0.22-0.302 0.404-0.519 0.533s-0.464 0.198-0.716 0.2z"></path>
<path fill="#fff" style="fill: var(--color2, #fff)" d="M46.199 3.543l-15.753 27.556c-0.121 0.221-0.299 0.405-0.516 0.534s-0.464 0.198-0.716 0.199h-11.393c-0.25-0.001-0.495-0.068-0.71-0.194s-0.394-0.306-0.518-0.523c-0.124-0.217-0.189-0.462-0.188-0.712s0.068-0.495 0.193-0.711l6.107-10.454 10.015-17.114c0.125-0.215 0.304-0.393 0.519-0.516s0.46-0.188 0.708-0.188h11.020c0.248 0 0.492 0.066 0.708 0.19s0.394 0.303 0.519 0.518c0.125 0.215 0.191 0.459 0.192 0.707s-0.063 0.493-0.187 0.709z"></path>
<path fill="#fff" style="fill: var(--color2, #fff)" d="M45.747 31.832h-11.401c-0.251 0.001-0.497-0.065-0.714-0.19s-0.397-0.306-0.522-0.523c-0.125-0.217-0.19-0.464-0.188-0.714s0.069-0.496 0.196-0.712l16.134-27.569c0.124-0.214 0.303-0.392 0.518-0.515s0.458-0.188 0.706-0.189h11.024c0.249-0 0.494 0.065 0.71 0.19s0.395 0.303 0.52 0.519c0.125 0.216 0.191 0.46 0.191 0.709s-0.065 0.494-0.189 0.71l-15.749 27.552c-0.127 0.22-0.31 0.402-0.531 0.528s-0.471 0.191-0.725 0.188z"></path>
<path fill="#acacac" style="fill: var(--color1, #acacac)" d="M46.199 3.543l-6.974 12.205c-0.606 1.059-1.481 1.94-2.536 2.553s-2.254 0.936-3.474 0.936h-10.509l10.015-17.114c0.125-0.215 0.304-0.393 0.519-0.516s0.46-0.188 0.708-0.188h11.020c0.248 0 0.492 0.066 0.708 0.19s0.394 0.303 0.519 0.518c0.125 0.215 0.191 0.459 0.192 0.707s-0.063 0.493-0.187 0.709z"></path>
</symbol>

<symbol id="icon-Rectangle-7" viewBox="0 0 391 32">
<path fill="#fff" style="fill: var(--color1, #fff)" d="M0 31.898l391.338-31.898v31.898h-391.338z"></path>
</symbol>

<symbol id="icon-Rectangle-2011" viewBox="0 0 391 32">
<path fill="red" style="fill: var(--color1, #f6f8fa)" d="M391.338 32l-391.338-32v32h391.338z"></path>
</symbol>

<symbol id="icon-Frame-8" viewBox="0 0 44 32">
<path fill="#3e82be" style="fill: var(--color1, #3e82be)" d="M12.677 16.002c-1.805-1.991-3.542-3.909-5.283-5.825-2.221-2.446-4.443-4.891-6.669-7.333-0.495-0.543-0.944-1.097-0.607-1.892 0.346-0.817 1.045-0.949 1.84-0.945 2.605 0.013 5.211 0.022 7.815-0.006 0.777-0.008 1.357 0.241 1.877 0.817 4.181 4.629 8.381 9.241 12.572 13.86 0.958 1.056 0.961 1.59 0.008 2.641-4.209 4.642-8.427 9.276-12.631 13.922-0.475 0.525-1.016 0.764-1.73 0.759-2.662-0.020-5.325-0.015-7.987-0.004-0.77 0.003-1.427-0.164-1.761-0.934-0.326-0.752 0.057-1.303 0.537-1.831 3.699-4.066 7.396-8.135 11.093-12.203 0.286-0.314 0.57-0.631 0.926-1.026z"></path>
<path fill="#3e82be" style="fill: var(--color1, #3e82be)" d="M31.735 15.999c-2.437-2.686-4.808-5.299-7.18-7.911-1.608-1.771-3.214-3.544-4.829-5.31-0.484-0.529-0.867-1.082-0.55-1.83 0.326-0.77 0.984-0.945 1.757-0.941 2.662 0.011 5.325 0.017 7.987-0.004 0.714-0.006 1.254 0.23 1.73 0.756 4.242 4.688 8.5 9.363 12.747 14.047 0.801 0.883 0.804 1.506 0.005 2.388-4.247 4.684-8.504 9.359-12.747 14.047-0.475 0.525-1.014 0.765-1.729 0.76-2.662-0.021-5.325-0.015-7.987-0.004-0.772 0.003-1.43-0.166-1.761-0.936-0.321-0.748 0.058-1.3 0.541-1.831 3.662-4.023 7.318-8.051 10.976-12.077 0.324-0.356 0.645-0.715 1.039-1.152z"></path>
</symbol>

<symbol id="icon-Vector-2" viewBox="0 0 50 32">
<path fill="none" stroke="#bd2327" style="stroke: var(--color1, #bd2327)" stroke-linejoin="miter" stroke-linecap="butt" stroke-miterlimit="4" stroke-width="7.1111" d="M3.556 3.556l21.333 21.333 21.333-21.333"></path>
</symbol>

<symbol id="icon-Frame-9" viewBox="0 0 30 32">
<path fill="#fff" style="fill: var(--color1, #fff)" d="M26.096 14.012l-2.125-2.146-7.302 7.12v-18.985h-3.036v18.985l-7.272-7.12-2.125 2.146 10.915 10.687 10.945-10.687z"></path>
<path fill="#fff" style="fill: var(--color1, #fff)" d="M30.316 32h-30.316v-12.092h3.036v9.069h24.244v-9.069h3.036v12.092z"></path>
</symbol>

<symbol id="icon-Frame-10" viewBox="0 0 66 32">
<path fill="#3e82be" style="fill: var(--color4, #3e82be)" d="M13.524 32.013h-12.020c-0.264 0-0.523-0.069-0.751-0.201s-0.418-0.321-0.549-0.549c-0.131-0.228-0.2-0.487-0.199-0.75s0.072-0.521 0.205-0.749l17.034-29.024c0.131-0.223 0.317-0.409 0.541-0.538s0.478-0.2 0.737-0.202h11.631c0.263-0.001 0.521 0.067 0.749 0.198s0.417 0.318 0.549 0.545 0.201 0.484 0.202 0.746c0 0.262-0.069 0.52-0.2 0.747l-16.623 29.010c-0.13 0.231-0.319 0.424-0.548 0.559s-0.49 0.207-0.756 0.208z"></path>
<path fill="#bd2327" style="fill: var(--color5, #bd2327)" d="M48.762 2.236l-16.627 29.010c-0.128 0.232-0.317 0.425-0.545 0.56s-0.489 0.206-0.755 0.207h-12.025c-0.264-0.001-0.522-0.072-0.75-0.205s-0.416-0.323-0.547-0.551c-0.131-0.228-0.199-0.487-0.198-0.75s0.071-0.521 0.204-0.748l6.446-11.006 10.57-18.013c0.132-0.226 0.321-0.413 0.548-0.543s0.485-0.198 0.747-0.197h11.627c0.264-0.004 0.525 0.061 0.756 0.19s0.423 0.316 0.558 0.543c0.135 0.227 0.207 0.486 0.209 0.75s-0.066 0.524-0.197 0.753z"></path>
<path fill="#bd2327" style="fill: var(--color5, #bd2327)" d="M48.285 32.013h-12.034c-0.264 0.002-0.524-0.067-0.754-0.198s-0.419-0.321-0.551-0.55-0.2-0.488-0.199-0.752c0.002-0.264 0.073-0.522 0.208-0.749l17.029-29.024c0.132-0.226 0.321-0.413 0.549-0.543s0.485-0.198 0.747-0.198h11.631c0.263 0 0.52 0.069 0.747 0.2s0.416 0.319 0.548 0.545c0.131 0.226 0.201 0.483 0.202 0.745s-0.067 0.519-0.197 0.746l-16.622 29.010c-0.134 0.231-0.328 0.423-0.561 0.554s-0.497 0.199-0.765 0.195z"></path>
<path fill="#3e82be" style="fill: var(--color4, #3e82be)" d="M48.762 2.236l-7.361 12.849c-0.64 1.114-1.564 2.040-2.678 2.684s-2.379 0.984-3.666 0.984h-11.092l10.57-18.013c0.132-0.226 0.321-0.413 0.548-0.543s0.485-0.198 0.747-0.197h11.627c0.264-0.004 0.525 0.061 0.756 0.19s0.423 0.316 0.558 0.543 0.207 0.486 0.209 0.75c0.002 0.264-0.066 0.524-0.197 0.753z"></path>
</symbol>

<symbol id="icon-Frame-11" viewBox="-10 -10 47 52">
<path fill="#1565c0" style="fill: var(--color1, #1565c0)" d="M26.85 9.329c0.257 0.146 0.17 0.401 0.17 0.617 0.005 5.915 0.005 11.831 0 17.746 0 2.526-1.776 4.303-4.261 4.306-4.978 0-9.952 0-14.922 0-2.484 0-4.254-1.785-4.256-4.311-0.007-7.79-0.007-15.58 0-23.37 0-2.53 1.771-4.317 4.251-4.316 3.427 0 6.851 0.008 10.272 0.024 0 0.208 0.013 0.415 0.013 0.625 0 2.705 0.012 5.409-0.011 8.113 0 0.5 0.151 0.643 0.624 0.625 0.857-0.035 1.714 0 2.571-0.011 1.848-0.014 3.698-0.030 5.549-0.047z"></path>
<path fill="#78a9e0" style="fill: var(--color2, #78a9e0)" d="M26.85 9.329c-1.852 0.015-3.703 0.029-5.555 0.042-0.857 0-1.714-0.024-2.571 0.011-0.474 0.019-0.629-0.125-0.624-0.625 0.023-2.704 0.011-5.408 0.011-8.113 0-0.208-0.009-0.415-0.013-0.625 1.109 1.156 2.225 2.304 3.325 3.468 1.698 1.796 3.389 3.599 5.072 5.409 0.131 0.138 0.239 0.289 0.355 0.433z"></path>
<path fill="#78a9e0" style="fill: var(--color2, #78a9e0)" d="M24.236 19.125h-24.236v7.879h24.236v-7.879z"></path>
<path fill="#fff" style="fill: var(--color3, #fff)" d="M5.875 25.291v-4.357h1.638c0.304-0.003 0.607 0.054 0.89 0.169 0.264 0.107 0.506 0.264 0.712 0.464 0.203 0.196 0.365 0.432 0.477 0.693 0.113 0.271 0.172 0.563 0.172 0.857s-0.058 0.586-0.172 0.857c-0.111 0.261-0.274 0.495-0.479 0.688-0.208 0.198-0.451 0.354-0.715 0.46-0.283 0.115-0.585 0.172-0.89 0.169h-1.634zM6.758 24.488h0.743c0.361 0.003 0.708-0.14 0.966-0.399 0.123-0.123 0.221-0.27 0.286-0.433 0.068-0.171 0.102-0.354 0.1-0.538 0.001-0.184-0.033-0.367-0.1-0.538-0.066-0.166-0.163-0.316-0.286-0.443s-0.271-0.227-0.432-0.295c-0.167-0.071-0.347-0.107-0.528-0.106h-0.749v2.751z"></path>
<path fill="#fff" style="fill: var(--color3, #fff)" d="M12.471 25.358c-0.303 0.003-0.605-0.055-0.886-0.17-0.539-0.221-0.97-0.651-1.201-1.196-0.115-0.279-0.174-0.578-0.174-0.88s0.059-0.602 0.174-0.88c0.23-0.545 0.662-0.974 1.201-1.194 0.568-0.229 1.199-0.229 1.766 0 0.268 0.11 0.512 0.273 0.719 0.479 0.207 0.208 0.372 0.457 0.484 0.731s0.17 0.568 0.17 0.865-0.058 0.591-0.17 0.865c-0.112 0.274-0.277 0.522-0.484 0.731-0.207 0.206-0.451 0.369-0.719 0.48-0.28 0.115-0.579 0.172-0.88 0.17zM12.471 24.531c0.182 0.002 0.363-0.035 0.53-0.109 0.161-0.071 0.307-0.174 0.43-0.303s0.218-0.281 0.283-0.448c0.137-0.362 0.137-0.763 0-1.126-0.067-0.166-0.164-0.317-0.286-0.445-0.122-0.126-0.267-0.227-0.426-0.298-0.166-0.073-0.345-0.11-0.525-0.109-0.18-0.002-0.358 0.033-0.524 0.103s-0.317 0.173-0.444 0.303c-0.122 0.129-0.219 0.28-0.286 0.445-0.070 0.176-0.105 0.364-0.103 0.554-0.002 0.196 0.033 0.39 0.103 0.573 0.065 0.167 0.161 0.32 0.284 0.449s0.27 0.231 0.432 0.301c0.169 0.073 0.35 0.109 0.534 0.108z"></path>
<path fill="#fff" style="fill: var(--color3, #fff)" d="M17.428 25.352c-0.305 0.003-0.607-0.055-0.89-0.17-0.268-0.109-0.513-0.271-0.721-0.476-0.205-0.203-0.368-0.445-0.481-0.713-0.115-0.279-0.174-0.578-0.174-0.88s0.059-0.602 0.174-0.88c0.115-0.269 0.282-0.512 0.49-0.715 0.208-0.206 0.453-0.369 0.722-0.479 0.282-0.116 0.583-0.174 0.886-0.171 0.231-0.001 0.46 0.032 0.682 0.099 0.215 0.065 0.421 0.159 0.612 0.28 0.186 0.116 0.352 0.264 0.49 0.436l-0.597 0.597c-0.14-0.187-0.322-0.337-0.53-0.438-0.204-0.098-0.426-0.148-0.651-0.146-0.184-0.002-0.367 0.035-0.536 0.109-0.162 0.069-0.309 0.17-0.432 0.298s-0.22 0.279-0.286 0.445c-0.071 0.18-0.107 0.372-0.104 0.567-0.002 0.191 0.035 0.38 0.107 0.557 0.068 0.168 0.167 0.32 0.293 0.449 0.125 0.127 0.274 0.228 0.438 0.295 0.177 0.072 0.367 0.108 0.558 0.106 0.217 0.002 0.431-0.048 0.627-0.144 0.198-0.097 0.372-0.237 0.512-0.41l0.573 0.585c-0.136 0.168-0.298 0.313-0.479 0.429-0.19 0.122-0.396 0.215-0.612 0.276-0.217 0.065-0.442 0.097-0.668 0.096z"></path>
</symbol>
<symbol id="icon-Group-23" viewBox="0 0 32 32">
<path fill="#f6f8fa" style="fill: var(--color1, #f6f8fa)" d="M32 16c0 8.837-7.163 16-16 16s-16-7.163-16-16c0-8.837 7.163-16 16-16s16 7.163 16 16z"></path>
<path fill="#3b4145" style="fill: var(--color2, #3b4145)" d="M17.205 21.266h-7.66c-0.121-0-0.239-0.032-0.343-0.091s-0.191-0.144-0.251-0.247c-0.060-0.102-0.092-0.219-0.092-0.337s0.032-0.234 0.092-0.337l5.716-9.711c0.060-0.103 0.147-0.188 0.252-0.247s0.223-0.090 0.344-0.090c0.121 0 0.239 0.031 0.344 0.090s0.191 0.144 0.252 0.247l3.050 5.182c0.253-0.175 0.522-0.326 0.805-0.451l-3.052-5.184c-0.141-0.24-0.345-0.44-0.59-0.579s-0.523-0.212-0.806-0.212c-0.283 0-0.561 0.073-0.806 0.212s-0.448 0.338-0.59 0.579l-5.719 9.711c-0.141 0.24-0.216 0.513-0.216 0.79s0.074 0.55 0.216 0.79c0.141 0.24 0.345 0.44 0.59 0.579s0.523 0.212 0.806 0.212h8.139c-0.193-0.284-0.354-0.588-0.48-0.907z"></path>
<path fill="#ffd764" style="fill: var(--color3, #ffd764)" d="M16.881 19.565c0-0.829 0.224-1.644 0.648-2.361s1.035-1.312 1.769-1.723l-3.040-5.164c-0.101-0.171-0.246-0.314-0.421-0.413s-0.373-0.151-0.575-0.151c-0.202 0-0.4 0.052-0.575 0.151s-0.32 0.241-0.421 0.413l-5.716 9.711c-0.101 0.171-0.154 0.366-0.154 0.564s0.053 0.392 0.154 0.564c0.101 0.171 0.246 0.314 0.421 0.413s0.373 0.151 0.575 0.151h7.868c-0.351-0.666-0.534-1.405-0.533-2.154z"></path>
<path fill="#3b4145" style="fill: var(--color2, #3b4145)" d="M15.296 19.967c-0.099 0.002-0.197-0.016-0.288-0.053s-0.174-0.091-0.243-0.16c-0.069-0.066-0.124-0.146-0.161-0.233s-0.056-0.182-0.055-0.277c-0.001-0.145 0.042-0.287 0.123-0.408s0.198-0.216 0.334-0.271c0.136-0.056 0.287-0.071 0.432-0.043s0.278 0.098 0.383 0.201c0.073 0.066 0.131 0.147 0.17 0.237s0.058 0.187 0.056 0.285c0.001 0.096-0.019 0.191-0.058 0.279s-0.097 0.167-0.169 0.231c-0.068 0.068-0.15 0.122-0.24 0.158s-0.186 0.055-0.284 0.055zM14.807 17.983l-0.157-4.487h1.285l-0.157 4.487h-0.97z"></path>
<path fill="#3b4145" style="fill: var(--color2, #3b4145)" d="M21.678 23.363c-0.766 0-1.515-0.223-2.151-0.64s-1.133-1.010-1.426-1.704c-0.293-0.694-0.37-1.458-0.22-2.194s0.518-1.413 1.060-1.945c0.542-0.531 1.232-0.893 1.983-1.039s1.53-0.071 2.237 0.216c0.708 0.287 1.312 0.774 1.738 1.399s0.653 1.359 0.653 2.11c-0.001 1.007-0.41 1.972-1.136 2.684s-1.71 1.113-2.737 1.114zM21.678 16.504c-0.617 0-1.221 0.18-1.734 0.516s-0.913 0.814-1.149 1.374c-0.236 0.559-0.298 1.175-0.178 1.769s0.418 1.139 0.854 1.567c0.436 0.428 0.993 0.72 1.598 0.838s1.233 0.057 1.803-0.174c0.57-0.232 1.058-0.624 1.401-1.127s0.526-1.095 0.526-1.701c-0.001-0.812-0.33-1.59-0.915-2.163s-1.378-0.897-2.206-0.898z"></path>
<path fill="#3b4145" style="fill: var(--color2, #3b4145)" d="M24.637 21.614l-0.502 0.549 2.165 1.903 0.501-0.549-2.165-1.903z"></path>
</symbol>
<symbol id="icon-Group-24" viewBox="0 0 32 32">
<path fill="#f6f8fa" style="fill: var(--color1, #f6f8fa)" d="M32 16c0 8.837-7.163 16-16 16s-16-7.163-16-16c0-8.837 7.163-16 16-16s16 7.163 16 16z"></path>
<path fill="#ec676a" style="fill: var(--color2, #ec676a)" d="M22.369 12.488c-1.018 0.008-2.036 0.016-3.054 0.023-0.471 0.003-0.942-0.013-1.413 0.006-0.26 0.010-0.346-0.068-0.343-0.342 0.013-1.479 0.006-2.958 0.006-4.438 0-0.114-0.005-0.227-0.007-0.342 0.61 0.632 1.224 1.26 1.828 1.897 0.934 0.982 1.863 1.969 2.789 2.959 0.072 0.075 0.131 0.158 0.195 0.237z"></path>
<path fill="#e4262b" style="fill: var(--color3, #e4262b)" d="M22.369 12.488c0.141 0.080 0.094 0.22 0.094 0.337 0.003 3.236 0.003 6.471 0 9.707 0 1.382-0.977 2.354-2.343 2.355-2.737 0-5.472 0-8.204 0-1.365 0-2.339-0.976-2.34-2.358-0.004-4.261-0.004-8.522 0-12.783 0-1.384 0.974-2.361 2.337-2.361 1.884 0 3.767 0.004 5.648 0.013 0 0.114 0.007 0.227 0.007 0.342 0 1.48 0.007 2.959-0.006 4.438 0 0.274 0.083 0.352 0.343 0.342 0.471-0.019 0.942 0 1.413-0.006 1.016-0.008 2.033-0.016 3.051-0.026z"></path>
<path fill="#fff" style="fill: var(--color4, #fff)" d="M11.804 20.871v-3.167h1.562c0.189-0.004 0.375 0.041 0.543 0.129 0.152 0.082 0.279 0.205 0.367 0.356 0.089 0.156 0.135 0.334 0.131 0.514 0.003 0.176-0.043 0.35-0.131 0.502-0.089 0.149-0.217 0.269-0.37 0.348-0.167 0.086-0.351 0.129-0.538 0.127h-0.916v1.194l-0.648-0.003zM12.45 19.133h0.845c0.123 0.006 0.244-0.037 0.337-0.12 0.042-0.039 0.075-0.087 0.097-0.141s0.032-0.111 0.030-0.169c0.003-0.059-0.008-0.118-0.029-0.173s-0.055-0.105-0.098-0.145c-0.092-0.083-0.213-0.126-0.337-0.12h-0.843l-0.003 0.868z"></path>
<path fill="#fff" style="fill: var(--color4, #fff)" d="M14.835 20.871v-3.167h1.197c0.222-0.002 0.443 0.039 0.649 0.122 0.193 0.078 0.37 0.192 0.521 0.337 0.148 0.143 0.267 0.314 0.349 0.504 0.083 0.197 0.126 0.409 0.126 0.623s-0.043 0.426-0.126 0.623c-0.081 0.189-0.2 0.36-0.349 0.5-0.153 0.143-0.33 0.257-0.523 0.334-0.207 0.083-0.427 0.125-0.649 0.122h-1.195zM15.48 20.286h0.543c0.131 0.001 0.26-0.024 0.381-0.073s0.231-0.123 0.324-0.216c0.090-0.089 0.161-0.196 0.209-0.314 0.050-0.124 0.075-0.257 0.074-0.391 0.001-0.134-0.024-0.267-0.074-0.391-0.047-0.12-0.118-0.23-0.209-0.322-0.092-0.093-0.202-0.167-0.322-0.217s-0.249-0.075-0.379-0.074h-0.546l-0.001 1.999z"></path>
<path fill="#fff" style="fill: var(--color4, #fff)" d="M18.119 20.871v-3.167h2.403v0.57h-1.758v0.746h1.17v0.547h-1.17v1.3l-0.645 0.003z"></path>
</symbol>

<symbol id="icon-Group-16" viewBox="0 0 32 32">
<path fill="#f6f8fa" style="fill: var(--color1, #f6f8fa)" d="M32 16c0 8.837-7.163 16-16 16s-16-7.163-16-16c0-8.837 7.163-16 16-16s16 7.163 16 16z"></path>
<path fill="#000" style="fill: var(--color2, #000)" d="M20.339 8.752c1.383 0.080 2.513 0.76 3.119 2.148 0.596 1.363 0.404 2.686-0.596 3.782-1.12 1.225-2.305 2.392-3.511 3.536-1.348 1.274-3.501 1.228-4.816-0.037-0.45-0.432-0.5-1.045-0.119-1.467s1.002-0.433 1.475-0.041c0.747 0.618 1.55 0.589 2.235-0.092 1.043-1.039 2.083-2.081 3.121-3.126 0.473-0.478 0.605-1.049 0.368-1.674-0.226-0.598-0.689-0.912-1.32-0.96-0.47-0.035-0.874 0.135-1.209 0.471-0.582 0.585-1.172 1.162-1.747 1.756-0.179 0.184-0.339 0.197-0.581 0.136-0.468-0.12-0.954-0.173-1.425-0.273-0.13-0.028-0.298-0.093-0.352-0.193-0.038-0.069 0.064-0.255 0.151-0.343 0.843-0.859 1.692-1.712 2.547-2.559 0.7-0.701 1.553-1.046 2.659-1.064z"></path>
<path fill="#000" style="fill: var(--color2, #000)" d="M11.94 24.069c-1.381-0.078-2.514-0.755-3.123-2.144-0.596-1.363-0.407-2.691 0.596-3.783 1.133-1.24 2.33-2.428 3.558-3.575 1.34-1.253 3.48-1.171 4.793 0.104 0.423 0.411 0.467 1.008 0.106 1.424s-0.991 0.456-1.449 0.087c-0.835-0.67-1.587-0.629-2.345 0.131-1.020 1.021-2.042 2.039-3.056 3.066-0.603 0.611-0.642 1.498-0.113 2.11 0.591 0.683 1.584 0.721 2.25 0.071 0.599-0.584 1.188-1.176 1.769-1.778 0.175-0.179 0.333-0.207 0.578-0.145 0.477 0.12 0.971 0.179 1.456 0.277 0.119 0.025 0.298 0.088 0.329 0.179s-0.054 0.262-0.138 0.348c-0.85 0.867-1.706 1.728-2.569 2.583-0.698 0.688-1.547 1.027-2.643 1.046z"></path>
</symbol>


<symbol id="icon-Group-20" viewBox="0 0 32 32">
<path fill="#f6f8fa" style="fill: var(--color1, #f6f8fa)" d="M32 16c0 8.837-7.163 16-16 16s-16-7.163-16-16c0-8.837 7.163-16 16-16s16 7.163 16 16z"></path>
<path fill="#78a9e0" style="fill: var(--color2, #78a9e0)" d="M22.826 12.761c0.146 0.080 0.097 0.22 0.097 0.337 0.003 3.236 0.003 6.471 0 9.707 0 1.382-1.011 2.354-2.426 2.355-2.835 0-5.667 0-8.497 0-1.414 0-2.422-0.976-2.424-2.358-0.004-4.261-0.004-8.522 0-12.783 0-1.384 1.009-2.361 2.421-2.361 1.952 0 3.902 0.004 5.849 0.013 0 0.114 0.008 0.227 0.008 0.342 0 1.48 0.007 2.959-0.006 4.438 0 0.274 0.086 0.352 0.355 0.342 0.488-0.019 0.976 0 1.464-0.006 1.052-0.008 2.106-0.016 3.16-0.026z"></path>
<path fill="#1565c0" style="fill: var(--color3, #1565c0)" d="M22.826 12.761c-1.054 0.008-2.109 0.016-3.163 0.023-0.488 0.003-0.976-0.013-1.464 0.006-0.27 0.010-0.358-0.068-0.355-0.342 0.013-1.479 0.006-2.958 0.006-4.438 0-0.114-0.005-0.227-0.008-0.342 0.632 0.632 1.267 1.26 1.893 1.897 0.967 0.982 1.93 1.969 2.888 2.959 0.075 0.075 0.136 0.158 0.202 0.237z"></path>
<path fill="#fff" style="fill: var(--color4, #fff)" d="M15.239 15.794c0.289 0 0.563-0.004 0.836 0 0.395 0.008 0.793-0.011 1.185 0.041 0.808 0.108 1.324 0.592 1.619 1.321 0.24 0.591 0.305 1.212 0.328 1.84 0 0.081 0 0.162 0.003 0.244 0.004 0.108-0.045 0.2-0.148 0.214-0.087 0.004-0.173-0.020-0.245-0.068-0.066-0.056-0.125-0.12-0.174-0.19-0.498-0.541-1.108-0.827-1.862-0.807-0.473 0.012-0.947 0-1.419 0h-0.125c0 0.27 0 0.53 0 0.79 0 0.121-0.016 0.227-0.146 0.274s-0.209-0.023-0.289-0.103c-0.697-0.684-1.394-1.37-2.091-2.057-0.162-0.158-0.162-0.253 0-0.41 0.697-0.684 1.395-1.37 2.095-2.057 0.084-0.083 0.171-0.155 0.301-0.1s0.139 0.166 0.135 0.284c-0.006 0.261-0.004 0.512-0.004 0.786z"></path>
</symbol>
<symbol id="icon-Group-25" viewBox="-14 -14 60 60">
<path fill="#3874b6" style="fill: var(--color1, #3874b6)" d="M16 31.485c8.552 0 15.485-6.933 15.485-15.485s-6.933-15.485-15.485-15.485c-8.552 0-15.485 6.933-15.485 15.485s6.933 15.485 15.485 15.485z"></path>
<path fill="#24479e" style="fill: var(--color2, #24479e)" d="M16 0.515c4.107 0 8.046 1.631 10.95 4.535s4.536 6.843 4.536 10.95c0 4.107-1.631 8.046-4.536 10.95s-6.843 4.535-10.95 4.535v-30.97z"></path>
<path fill="#fff" style="fill: var(--color3, #fff)" d="M15.155 8.961h2.252v14.64h-2.252v-14.64z"></path>
<path fill="#fff" style="fill: var(--color3, #fff)" d="M23.602 15.155v2.252h-14.64v-2.252h14.64z"></path>
</symbol>

<symbol id="icon-Frame-12" viewBox="0 0 241 32">
<path fill="#3e82be" style="fill: var(--color1, #3e82be)" d="M79.304 10.949c0.499 0.024 0.999-0.053 1.469-0.226s0.901-0.438 1.269-0.78c0.334-0.313 0.599-0.693 0.778-1.116s0.267-0.879 0.259-1.339c0.006-0.456-0.083-0.908-0.261-1.326s-0.443-0.794-0.775-1.103c-0.367-0.344-0.798-0.61-1.268-0.783s-0.97-0.25-1.47-0.226h-4.563v6.898h4.563zM79.358 1.34c0.863-0.036 1.725 0.102 2.535 0.407s1.551 0.768 2.182 1.365c0.591 0.56 1.058 1.239 1.372 1.993s0.467 1.566 0.449 2.384c0.017 0.819-0.137 1.632-0.45 2.387s-0.78 1.436-1.37 1.998c-0.628 0.6-1.369 1.067-2.179 1.374s-1.673 0.446-2.537 0.411h-4.625v7.28h-2.738v-19.598h7.363z"></path>
<path fill="#3e82be" style="fill: var(--color1, #3e82be)" d="M91.366 17.068c0.69 0.696 1.569 1.17 2.526 1.362s1.948 0.094 2.85-0.283c0.901-0.376 1.671-1.014 2.214-1.832s0.833-1.781 0.835-2.766c0.010-0.658-0.113-1.312-0.363-1.92s-0.618-1.159-1.084-1.619c-0.454-0.468-0.996-0.84-1.594-1.094s-1.241-0.385-1.889-0.385c-0.648 0-1.291 0.131-1.889 0.385s-1.139 0.626-1.593 1.094c-0.467 0.46-0.836 1.010-1.085 1.619s-0.372 1.262-0.363 1.92c-0.011 0.654 0.111 1.304 0.358 1.909s0.613 1.153 1.077 1.61zM89.4 8.184c0.632-0.712 1.407-1.279 2.273-1.663s1.804-0.577 2.75-0.565c1.152-0.005 2.281 0.321 3.257 0.938 0.944 0.567 1.706 1.398 2.194 2.392l0.133-3.116h2.389v14.769h-2.389l-0.133-3.083c-0.493 0.979-1.255 1.793-2.194 2.346-0.977 0.612-2.106 0.933-3.257 0.926-0.947 0.011-1.887-0.182-2.756-0.566s-1.645-0.951-2.28-1.662c-1.365-1.432-2.111-3.353-2.074-5.34-0.032-1.999 0.722-3.929 2.099-5.365z"></path>
<path fill="#3e82be" style="fill: var(--color1, #3e82be)" d="M104.892 6.17h2.049l0.32-4.829h2.178v4.829h3.509v2.362h-3.509v6.873c-0.056 0.857 0.199 1.706 0.717 2.387 0.246 0.278 0.549 0.498 0.89 0.642s0.709 0.212 1.077 0.195c0.381 0 0.759-0.069 1.115-0.205l0.668 2.333c-0.673 0.287-1.398 0.43-2.128 0.419-0.655 0.025-1.308-0.087-1.919-0.329s-1.164-0.609-1.627-1.078c-0.912-0.941-1.369-2.386-1.369-4.335v-6.903h-1.97v-2.362z"></path>
<path fill="#3e82be" style="fill: var(--color1, #3e82be)" d="M117.801 12.611h9.382c-0.026-0.567-0.165-1.123-0.407-1.635s-0.583-0.97-1.004-1.347c-0.896-0.82-2.072-1.257-3.28-1.219-1.193-0.032-2.352 0.405-3.231 1.219-0.857 0.761-1.382 1.833-1.46 2.982zM117.216 8.184c1.396-1.408 3.289-2.199 5.262-2.199s3.866 0.791 5.262 2.199c0.692 0.7 1.237 1.534 1.603 2.451s0.544 1.9 0.525 2.889c0 0.071-0.025 0.486-0.079 1.257h-11.951c0.19 1.117 0.794 2.119 1.689 2.802 1.113 0.846 2.502 1.234 3.888 1.087s2.664-0.818 3.579-1.879l2.099 1.315c-0.721 0.955-1.66 1.719-2.737 2.228-1.099 0.549-2.309 0.836-3.535 0.838-1.023 0.025-2.040-0.159-2.991-0.542s-1.814-0.957-2.538-1.686c-0.72-0.696-1.29-1.534-1.674-2.462s-0.574-1.927-0.558-2.933c-0.014-0.993 0.172-1.978 0.547-2.896s0.929-1.75 1.631-2.445z"></path>
<path fill="#3e82be" style="fill: var(--color1, #3e82be)" d="M132.8 20.938v-14.769h2.393l0.133 2.605c0.416-0.832 1.044-1.536 1.82-2.040 0.829-0.53 1.795-0.801 2.775-0.779 0.816-0.030 1.629 0.125 2.379 0.452s1.418 0.82 1.956 1.441c1.106 1.262 1.659 3.118 1.659 5.566v7.522h-2.605v-7.539c0-1.592-0.369-2.802-1.115-3.636-0.364-0.392-0.804-0.705-1.291-0.918s-1.015-0.324-1.547-0.324c-0.531 0-1.058 0.11-1.546 0.324s-0.927 0.526-1.291 0.918c-0.755 0.838-1.128 2.040-1.128 3.648v7.527h-2.592z"></path>
<path fill="#3e82be" style="fill: var(--color1, #3e82be)" d="M147.74 6.17h2.045l0.319-4.829h2.178v4.829h3.509v2.362h-3.509v6.873c-0.056 0.857 0.199 1.706 0.718 2.387 0.246 0.278 0.549 0.498 0.89 0.642s0.708 0.212 1.076 0.195c0.38 0.006 0.759-0.058 1.116-0.188l0.667 2.333c-0.673 0.287-1.397 0.43-2.128 0.419-0.656 0.025-1.309-0.087-1.919-0.329s-1.165-0.609-1.627-1.078c-0.912-0.941-1.369-2.386-1.369-4.335v-6.919h-1.967v-2.362z"></path>
<path fill="#bd2327" style="fill: var(--color2, #bd2327)" d="M159.778 20.938v-19.598h2.87l7.363 12.612 7.333-12.612h2.904v19.598h-2.737v-14.982l-6.704 11.514h-1.622l-6.67-11.514v14.982h-2.737z"></path>
<path fill="#bd2327" style="fill: var(--color2, #bd2327)" d="M187.308 17.068c0.689 0.696 1.568 1.17 2.525 1.362s1.948 0.094 2.849-0.283c0.901-0.376 1.672-1.014 2.215-1.832s0.833-1.781 0.835-2.766c0.009-0.658-0.114-1.312-0.363-1.92s-0.618-1.159-1.085-1.619c-0.453-0.468-0.995-0.84-1.593-1.094s-1.241-0.385-1.889-0.385c-0.649 0-1.291 0.131-1.889 0.385s-1.139 0.626-1.594 1.094c-0.466 0.46-0.835 1.011-1.083 1.62s-0.373 1.261-0.364 1.92c-0.011 0.654 0.111 1.304 0.357 1.909s0.613 1.153 1.078 1.61zM185.341 8.184c0.632-0.712 1.406-1.279 2.273-1.663s1.804-0.577 2.75-0.565c1.152-0.005 2.281 0.321 3.257 0.938 0.944 0.567 1.706 1.398 2.193 2.392l0.133-3.116h2.389v14.769h-2.389l-0.133-3.083c-0.493 0.979-1.254 1.793-2.193 2.346-0.977 0.612-2.107 0.933-3.257 0.926-0.948 0.011-1.887-0.182-2.756-0.566s-1.646-0.951-2.279-1.662c-1.366-1.432-2.111-3.353-2.075-5.34-0.032-1.999 0.722-3.929 2.099-5.365z"></path>
<path fill="#bd2327" style="fill: var(--color2, #bd2327)" d="M202.14 20.938v-20.942h2.489v12.775l6.537-6.605h3.082l-5.608 5.885 6.338 8.888h-3.056l-4.94-6.928-2.364 2.304v4.624h-2.477z"></path>
<path fill="#bd2327" style="fill: var(--color2, #bd2327)" d="M218.085 12.612h9.382c-0.026-0.567-0.164-1.122-0.405-1.634s-0.582-0.97-1.001-1.348c-0.896-0.82-2.073-1.257-3.281-1.219-1.199-0.036-2.363 0.401-3.248 1.219-0.848 0.759-1.368 1.824-1.447 2.965zM217.5 8.168c1.396-1.408 3.289-2.199 5.262-2.199s3.866 0.791 5.262 2.199c0.691 0.7 1.236 1.534 1.602 2.451s0.545 1.9 0.526 2.889c0 0.071-0.025 0.486-0.079 1.257h-11.963c0.189 1.117 0.793 2.119 1.688 2.802 1.114 0.846 2.502 1.234 3.888 1.087s2.664-0.818 3.578-1.879l2.099 1.315c-0.721 0.955-1.66 1.719-2.737 2.228-1.099 0.549-2.309 0.836-3.535 0.838-1.022 0.026-2.040-0.159-2.991-0.542s-1.814-0.957-2.538-1.686c-0.72-0.695-1.29-1.534-1.674-2.462s-0.573-1.927-0.558-2.933c-0.014-0.993 0.173-1.978 0.547-2.896s0.929-1.75 1.631-2.445z"></path>
<path fill="#bd2327" style="fill: var(--color2, #bd2327)" d="M233.080 6.17h2.389l0.162 2.417c0.409-0.788 1.044-1.433 1.821-1.851 0.83-0.441 1.758-0.663 2.696-0.645h0.133c0.365-0.001 0.73 0.025 1.091 0.080l-0.531 2.513c-0.166-0.032-0.336-0.050-0.506-0.054-0.62-0.021-1.237 0.084-1.816 0.31s-1.104 0.568-1.549 1.005c-0.873 0.874-1.312 2.26-1.315 4.159v6.836h-2.576v-14.769z"></path>
<path fill="#fff" style="fill: var(--color3, #fff)" d="M73.057 26.266v4.725h1.070c0.328 0.014 0.655-0.040 0.961-0.159s0.585-0.3 0.819-0.532c0.217-0.22 0.388-0.481 0.503-0.769s0.171-0.596 0.165-0.906c0.007-0.312-0.050-0.622-0.168-0.91s-0.294-0.549-0.517-0.765c-0.234-0.229-0.512-0.408-0.816-0.525s-0.629-0.171-0.955-0.158h-1.062zM74.127 25.361c0.449-0.016 0.896 0.058 1.316 0.219s0.803 0.406 1.127 0.719c0.311 0.298 0.557 0.658 0.722 1.058s0.246 0.83 0.236 1.262c0.012 0.434-0.066 0.865-0.227 1.267s-0.403 0.766-0.71 1.070c-0.327 0.315-0.714 0.561-1.137 0.721s-0.874 0.233-1.326 0.213h-1.983v-6.53h1.983z"></path>
<path fill="#fff" style="fill: var(--color3, #fff)" d="M80.399 31.891h-0.913v-6.53h0.913v6.53z"></path>
<path fill="#fff" style="fill: var(--color3, #fff)" d="M83.319 26.258c0.305-0.318 0.672-0.57 1.077-0.739s0.841-0.253 1.279-0.245c0.514-0.002 1.021 0.117 1.481 0.348 0.452 0.228 0.849 0.554 1.161 0.955l-0.83 0.503c-0.212-0.257-0.476-0.467-0.772-0.616s-0.622-0.234-0.953-0.249c-0.331-0.015-0.662 0.039-0.971 0.16s-0.59 0.305-0.825 0.542c-0.227 0.219-0.406 0.483-0.527 0.776s-0.18 0.607-0.174 0.924c-0.003 0.319 0.056 0.636 0.176 0.932s0.295 0.565 0.519 0.791c0.223 0.226 0.489 0.406 0.781 0.528s0.606 0.184 0.922 0.182c0.564 0.022 1.114-0.178 1.535-0.557 0.407-0.382 0.648-0.91 0.672-1.47h-2.422v-0.838h3.41c0.027 0.151 0.040 0.303 0.037 0.456 0.018 0.446-0.052 0.891-0.207 1.308s-0.39 0.8-0.693 1.125c-0.303 0.312-0.667 0.557-1.069 0.718s-0.833 0.237-1.266 0.22c-0.662 0.006-1.31-0.187-1.862-0.556s-0.982-0.895-1.235-1.513c-0.253-0.617-0.318-1.297-0.186-1.952s0.455-1.255 0.927-1.723z"></path>
<path fill="#fff" style="fill: var(--color3, #fff)" d="M91.781 31.891h-0.912v-6.53h0.912v6.53z"></path>
<path fill="#fff" style="fill: var(--color3, #fff)" d="M93.589 25.361h4.866v0.888h-1.978v5.642h-0.912v-5.642h-1.975v-0.888z"></path>
<path fill="#fff" style="fill: var(--color3, #fff)" d="M103.043 29.315l-0.983-2.718-0.976 2.718h1.958zM101.562 25.353h0.991l2.39 6.538h-0.992l-0.622-1.701h-2.489l-0.614 1.701h-1.008l2.343-6.538z"></path>
<path fill="#fff" style="fill: var(--color3, #fff)" d="M110.832 31.891h-4.173v-6.53h0.912v5.629h3.26v0.901z"></path>
<path fill="#fff" style="fill: var(--color3, #fff)" d="M119.203 29.315l-0.987-2.71-0.97 2.71h1.957zM117.722 25.353h0.992l2.364 6.53h-0.992l-0.626-1.692h-2.489l-0.614 1.701h-1.008l2.373-6.538z"></path>
<path fill="#fff" style="fill: var(--color3, #fff)" d="M122.43 30.961l0.576-0.591c0.228 0.242 0.501 0.435 0.804 0.568s0.629 0.201 0.959 0.203c0.342 0.016 0.679-0.080 0.963-0.272 0.118-0.087 0.213-0.201 0.276-0.333s0.094-0.278 0.089-0.425c0.003-0.201-0.067-0.395-0.195-0.549-0.143-0.159-0.316-0.286-0.51-0.373-0.226-0.102-0.457-0.19-0.693-0.264-0.249-0.080-0.502-0.172-0.751-0.272-0.24-0.096-0.472-0.212-0.692-0.348-0.21-0.135-0.385-0.319-0.51-0.536-0.134-0.248-0.201-0.526-0.196-0.808-0.004-0.234 0.046-0.466 0.144-0.678s0.244-0.398 0.425-0.545c0.439-0.342 0.985-0.513 1.539-0.482 0.403 0.002 0.802 0.089 1.169 0.256 0.391 0.176 0.731 0.45 0.987 0.796l-0.643 0.494c-0.162-0.228-0.38-0.407-0.635-0.519-0.261-0.12-0.543-0.187-0.83-0.197h-0.045c-0.309-0.012-0.614 0.071-0.876 0.239-0.104 0.064-0.19 0.153-0.251 0.26s-0.092 0.228-0.093 0.351c-0.002 0.185 0.068 0.364 0.195 0.498 0.144 0.149 0.318 0.264 0.51 0.339 0.208 0.088 0.44 0.168 0.688 0.247s0.507 0.168 0.759 0.268c0.244 0.095 0.477 0.214 0.697 0.356 0.213 0.143 0.387 0.337 0.507 0.566 0.136 0.257 0.203 0.546 0.195 0.838 0.010 0.266-0.040 0.531-0.147 0.774s-0.268 0.458-0.471 0.629c-0.448 0.36-1.008 0.545-1.58 0.524h-0.034c-0.439 0.007-0.874-0.082-1.276-0.259s-0.762-0.441-1.054-0.771z"></path>
<path fill="#fff" style="fill: var(--color3, #fff)" d="M128.652 30.961l0.577-0.591c0.227 0.242 0.5 0.435 0.803 0.568s0.63 0.201 0.96 0.203c0.341 0.015 0.678-0.080 0.962-0.272 0.118-0.086 0.213-0.201 0.277-0.333s0.094-0.278 0.088-0.425c0.006-0.201-0.063-0.397-0.195-0.549-0.14-0.16-0.313-0.287-0.506-0.373-0.226-0.102-0.457-0.19-0.693-0.264-0.253-0.080-0.502-0.172-0.751-0.272-0.24-0.095-0.473-0.211-0.693-0.348-0.21-0.134-0.386-0.318-0.51-0.536-0.133-0.248-0.201-0.526-0.195-0.808-0.005-0.234 0.044-0.467 0.143-0.679s0.244-0.398 0.426-0.544c0.439-0.342 0.985-0.513 1.539-0.482 0.403 0.002 0.801 0.089 1.169 0.256 0.389 0.176 0.729 0.45 0.983 0.796l-0.643 0.494c-0.162-0.227-0.381-0.406-0.635-0.519-0.262-0.12-0.543-0.187-0.829-0.197h-0.046c-0.309-0.013-0.614 0.071-0.876 0.239-0.104 0.063-0.191 0.153-0.251 0.26s-0.092 0.228-0.092 0.352c-0.002 0.092 0.015 0.183 0.048 0.269s0.084 0.164 0.147 0.23c0.144 0.148 0.315 0.263 0.506 0.339 0.211 0.088 0.443 0.168 0.692 0.247s0.502 0.168 0.759 0.268c0.243 0.094 0.475 0.213 0.693 0.356 0.215 0.142 0.39 0.336 0.51 0.566 0.183 0.368 0.241 0.786 0.166 1.191s-0.279 0.773-0.582 1.050c-0.447 0.36-1.008 0.545-1.58 0.524h-0.033c-0.439 0.007-0.875-0.082-1.276-0.259s-0.762-0.441-1.055-0.771z"></path>
<path fill="#fff" style="fill: var(--color3, #fff)" d="M136.052 31.891h-0.913v-6.53h0.913v6.53z"></path>
<path fill="#fff" style="fill: var(--color3, #fff)" d="M138.005 30.961l0.577-0.591c0.227 0.242 0.5 0.436 0.803 0.568s0.63 0.201 0.96 0.202c0.34 0.015 0.676-0.080 0.958-0.272 0.119-0.086 0.214-0.2 0.279-0.332s0.095-0.279 0.090-0.426c0.002-0.201-0.067-0.395-0.195-0.549-0.141-0.161-0.315-0.288-0.51-0.373-0.226-0.103-0.457-0.191-0.693-0.264-0.249-0.080-0.497-0.172-0.751-0.272-0.24-0.096-0.473-0.212-0.693-0.348-0.209-0.134-0.383-0.318-0.506-0.536-0.136-0.247-0.203-0.526-0.196-0.808-0.005-0.234 0.044-0.466 0.142-0.678s0.242-0.399 0.422-0.545c0.441-0.343 0.988-0.514 1.543-0.482 0.403 0.002 0.802 0.089 1.17 0.255 0.389 0.176 0.728 0.45 0.983 0.796l-0.647 0.494c-0.161-0.228-0.38-0.407-0.635-0.519-0.261-0.121-0.543-0.188-0.829-0.197h-0.046c-0.311-0.012-0.617 0.071-0.88 0.239-0.104 0.064-0.191 0.153-0.251 0.26s-0.092 0.228-0.093 0.351c-0.002 0.186 0.069 0.364 0.195 0.498 0.145 0.148 0.319 0.263 0.51 0.339 0.212 0.088 0.44 0.168 0.693 0.247s0.502 0.168 0.755 0.268c0.243 0.095 0.476 0.214 0.697 0.356 0.213 0.144 0.388 0.338 0.51 0.565 0.184 0.368 0.242 0.786 0.167 1.191s-0.28 0.774-0.582 1.050c-0.445 0.36-1.005 0.546-1.576 0.524h-0.033c-0.439 0.008-0.875-0.080-1.277-0.258s-0.762-0.441-1.054-0.772z"></path>
<path fill="#fff" style="fill: var(--color3, #fff)" d="M143.932 25.361h4.866v0.888h-1.962v5.642h-0.912v-5.642h-1.991v-0.888z"></path>
<path fill="#fff" style="fill: var(--color3, #fff)" d="M153.403 29.315l-0.983-2.718-0.975 2.718h1.958zM151.921 25.353h0.992l2.368 6.53h-0.979l-0.622-1.7h-2.489l-0.623 1.709h-1.008l2.36-6.538z"></path>
<path fill="#fff" style="fill: var(--color3, #fff)" d="M157.023 31.891v-6.53h0.913l3.617 4.913v-4.913h0.921v6.53h-0.921l-3.617-4.917v4.917h-0.913z"></path>
<path fill="#fff" style="fill: var(--color3, #fff)" d="M164.286 25.361h4.862v0.888h-1.988v5.642h-0.912v-5.642h-1.974l0.012-0.888z"></path>
<path fill="#fff" style="fill: var(--color3, #fff)" d="M174.258 25.361h4.173v0.888h-3.269v1.914h3.090v0.884h-3.090v2.844h-0.904v-6.53z"></path>
<path fill="#fff" style="fill: var(--color3, #fff)" d="M180.882 28.62c-0.014 0.326 0.038 0.652 0.153 0.957s0.289 0.584 0.513 0.82c0.223 0.236 0.492 0.423 0.789 0.551s0.618 0.194 0.941 0.194c0.324 0 0.644-0.066 0.941-0.194s0.566-0.316 0.789-0.551c0.224-0.236 0.399-0.514 0.513-0.82s0.166-0.631 0.153-0.957c0.006-0.317-0.054-0.631-0.175-0.924s-0.3-0.557-0.527-0.776c-0.449-0.452-1.058-0.706-1.692-0.706s-1.243 0.254-1.692 0.706c-0.228 0.22-0.408 0.484-0.528 0.778s-0.182 0.609-0.176 0.927zM180.928 26.262c0.464-0.474 1.056-0.797 1.702-0.929s1.317-0.067 1.925 0.188c0.61 0.254 1.13 0.686 1.495 1.24s0.559 1.206 0.556 1.871c0.006 0.443-0.078 0.883-0.245 1.293s-0.416 0.781-0.73 1.091c-0.625 0.63-1.472 0.983-2.355 0.983s-1.729-0.356-2.353-0.987c-0.624-0.631-0.974-1.486-0.973-2.378s0.353-1.746 0.977-2.376z"></path>
<path fill="#fff" style="fill: var(--color3, #fff)" d="M191.003 28.566c0.336 0.014 0.664-0.106 0.912-0.335 0.112-0.107 0.202-0.237 0.262-0.382s0.087-0.3 0.082-0.456c0.002-0.151-0.028-0.302-0.087-0.441s-0.147-0.264-0.257-0.367c-0.249-0.229-0.577-0.35-0.912-0.335h-1.527v2.299l1.527 0.017zM191.003 25.361c0.292-0.013 0.582 0.034 0.855 0.138s0.523 0.262 0.733 0.465c0.197 0.186 0.354 0.412 0.459 0.663s0.156 0.522 0.151 0.794c0.004 0.439-0.141 0.865-0.411 1.21s-0.646 0.585-1.070 0.684l1.572 2.576h-1.061l-1.473-2.425h-1.282v2.425h-0.912v-6.53h2.439z"></path>
<path fill="#fff" style="fill: var(--color3, #fff)" d="M200.871 28.566c0.336 0.014 0.664-0.106 0.912-0.335 0.112-0.107 0.202-0.237 0.262-0.382s0.087-0.3 0.082-0.456c0.002-0.151-0.028-0.302-0.087-0.441s-0.147-0.264-0.257-0.367c-0.249-0.229-0.577-0.35-0.912-0.335h-1.527v2.299l1.527 0.017zM200.871 25.361c0.291-0.012 0.582 0.035 0.855 0.139s0.522 0.262 0.733 0.465c0.194 0.191 0.348 0.419 0.453 0.671s0.16 0.522 0.16 0.795c0 0.273-0.055 0.544-0.16 0.795s-0.259 0.48-0.453 0.671c-0.209 0.2-0.456 0.356-0.726 0.458s-0.558 0.149-0.846 0.137h-1.543v2.425h-0.912v-6.555h2.439z"></path>
<path fill="#fff" style="fill: var(--color3, #fff)" d="M207.698 29.315l-0.983-2.718-0.978 2.718h1.961zM206.218 25.353h0.996l2.364 6.53h-0.992l-0.622-1.7h-2.489l-0.61 1.7h-1.012l2.364-6.53z"></path>
<path fill="#fff" style="fill: var(--color3, #fff)" d="M210.332 25.361h4.861v0.888h-1.99v5.642h-0.912v-5.642h-1.975l0.016-0.888z"></path>
<path fill="#fff" style="fill: var(--color3, #fff)" d="M217.002 25.361h3.994v0.838h-3.090v1.906h2.904v0.838h-2.904v2.048h3.178v0.892h-4.086l0.004-6.521z"></path>
<path fill="#fff" style="fill: var(--color3, #fff)" d="M223.125 31.891v-6.53h0.912l3.612 4.913v-4.913h0.921v6.53h-0.921l-3.612-4.917v4.917h-0.912z"></path>
<path fill="#fff" style="fill: var(--color3, #fff)" d="M230.38 25.361h4.865v0.888h-1.978v5.642h-0.912v-5.642h-1.974v-0.888z"></path>
<path fill="#fff" style="fill: var(--color3, #fff)" d="M236.656 30.961l0.576-0.591c0.228 0.242 0.501 0.435 0.804 0.568s0.629 0.201 0.959 0.203c0.342 0.015 0.679-0.080 0.963-0.272 0.119-0.086 0.214-0.2 0.279-0.332s0.095-0.278 0.090-0.426c0.005-0.202-0.067-0.398-0.199-0.549-0.14-0.16-0.313-0.287-0.506-0.373-0.226-0.102-0.457-0.19-0.693-0.264-0.253-0.080-0.502-0.172-0.751-0.272-0.241-0.095-0.473-0.211-0.693-0.348-0.211-0.134-0.386-0.318-0.51-0.536-0.133-0.248-0.201-0.526-0.195-0.808-0.005-0.234 0.045-0.466 0.144-0.678s0.243-0.398 0.424-0.545c0.439-0.342 0.986-0.513 1.539-0.482 0.404 0.002 0.802 0.089 1.17 0.256 0.389 0.176 0.729 0.45 0.983 0.796l-0.643 0.494c-0.167-0.223-0.39-0.397-0.647-0.503-0.261-0.12-0.543-0.187-0.829-0.197h-0.046c-0.309-0.013-0.614 0.071-0.875 0.239-0.105 0.064-0.191 0.153-0.251 0.26s-0.092 0.228-0.093 0.351c-0.002 0.092 0.015 0.183 0.048 0.269s0.083 0.164 0.146 0.23c0.144 0.149 0.318 0.264 0.51 0.339 0.208 0.088 0.44 0.168 0.688 0.247s0.502 0.168 0.76 0.268c0.242 0.094 0.475 0.213 0.692 0.356 0.215 0.142 0.39 0.336 0.51 0.566 0.136 0.257 0.204 0.546 0.196 0.838 0.010 0.266-0.040 0.531-0.147 0.774s-0.269 0.459-0.471 0.629c-0.448 0.36-1.008 0.545-1.581 0.524h-0.033c-0.439 0.007-0.874-0.082-1.276-0.259s-0.762-0.441-1.055-0.771z"></path>
<path fill="#3e82be" style="fill: var(--color1, #3e82be)" d="M12.688 31.828h-11.278c-0.25 0.001-0.495-0.066-0.711-0.192s-0.395-0.308-0.518-0.527c-0.124-0.219-0.187-0.467-0.185-0.719s0.071-0.499 0.199-0.715l15.982-27.552c0.122-0.212 0.297-0.388 0.508-0.511s0.448-0.19 0.691-0.192h10.913c0.246 0 0.488 0.066 0.701 0.19s0.39 0.303 0.514 0.518 0.189 0.459 0.19 0.707c0.001 0.248-0.063 0.493-0.185 0.709l-15.596 27.556c-0.123 0.219-0.3 0.402-0.515 0.53s-0.459 0.196-0.709 0.199z"></path>
<path fill="#bd2327" style="fill: var(--color2, #bd2327)" d="M45.752 3.543l-15.6 27.556c-0.12 0.22-0.297 0.404-0.512 0.532s-0.459 0.196-0.708 0.197h-11.282c-0.247-0.001-0.49-0.068-0.703-0.194s-0.391-0.306-0.513-0.523c-0.123-0.217-0.187-0.462-0.186-0.712s0.067-0.495 0.191-0.711l6.048-10.454 9.918-17.11c0.124-0.215 0.301-0.393 0.514-0.516s0.455-0.188 0.701-0.188h10.909c0.248-0.004 0.493 0.058 0.71 0.181s0.397 0.3 0.524 0.516c0.126 0.216 0.194 0.461 0.196 0.712s-0.062 0.497-0.185 0.715z"></path>
<path fill="#bd2327" style="fill: var(--color2, #bd2327)" d="M45.304 31.828h-11.291c-0.248-0-0.491-0.066-0.705-0.192s-0.392-0.306-0.515-0.523c-0.123-0.217-0.187-0.463-0.185-0.714s0.069-0.496 0.194-0.711l15.974-27.564c0.123-0.214 0.3-0.392 0.513-0.515s0.453-0.188 0.699-0.189h10.917c0.246 0 0.488 0.066 0.701 0.19s0.39 0.303 0.514 0.518c0.123 0.215 0.189 0.459 0.19 0.707s-0.063 0.493-0.185 0.709l-15.596 27.556c-0.126 0.22-0.307 0.402-0.526 0.528s-0.467 0.191-0.718 0.188z"></path>
<path fill="#3e82be" style="fill: var(--color1, #3e82be)" d="M45.752 3.543l-6.906 12.205c-0.6 1.059-1.467 1.939-2.512 2.551s-2.232 0.934-3.44 0.934h-10.407l9.918-17.11c0.124-0.215 0.301-0.393 0.514-0.516s0.455-0.188 0.701-0.188h10.909c0.248-0.004 0.493 0.058 0.71 0.181s0.397 0.3 0.524 0.516c0.126 0.216 0.194 0.461 0.196 0.712s-0.062 0.497-0.185 0.715z"></path>
</symbol>

<symbol id="icon-Frame-13" viewBox="0 0 43 32">
<path fill="#fff" style="fill: var(--color1, #fff)" opacity="0.5" d="M22.35 20.903c-0.764 0.464-1.724 0.464-2.489 0l-19.861-12.123v16.114c0.002 3.444 2.793 6.235 6.236 6.236h29.785c3.444-0.002 6.235-2.793 6.236-6.236v-16.114l-19.908 12.123z"></path>
<path fill="#fff" style="fill: var(--color1, #fff)" opacity="0.5" d="M36.025 0h-29.788c-2.914 0.007-5.429 2.041-6.044 4.889l20.955 12.772 20.903-12.772c-0.613-2.841-3.118-4.873-6.025-4.889z"></path>
</symbol>

<symbol id="icon-Frame-17" viewBox="0 0 37 32">
<path fill="#fff" style="fill: var(--color1, #fff)" opacity="0.5" d="M5.219 31.564h-2.54l1.797-1.797c0.966-0.969 1.579-2.235 1.736-3.595-3.799-2.283-6.147-6.366-6.211-10.798 0-7.619 7.010-15.375 17.981-15.375 11.628 0 17.864 7.131 17.864 14.708 0 7.619-6.301 14.752-17.864 14.752-2.033 0-4.058-0.256-6.027-0.762-1.766 1.826-4.195 2.859-6.735 2.866z"></path>
</symbol>
<symbol id="icon-Frame-16" viewBox="0 0 43 32">
<path fill="#fff" style="fill: var(--color1, #fff)" opacity="0.5" d="M22.35 20.903c-0.764 0.464-1.724 0.464-2.489 0l-19.861-12.123v16.114c0.002 3.444 2.793 6.235 6.236 6.236h29.785c3.444-0.002 6.235-2.793 6.236-6.236v-16.114l-19.908 12.123z"></path>
<path fill="#fff" style="fill: var(--color1, #fff)" opacity="0.5" d="M36.025 0h-29.788c-2.914 0.007-5.429 2.041-6.044 4.889l20.955 12.772 20.903-12.772c-0.613-2.841-3.118-4.873-6.025-4.889z"></path>
</symbol>
<symbol id="icon-Frame-15" viewBox="0 0 32 32">
<path fill="#fff" style="fill: var(--color1, #fff)" opacity="0.5" d="M29.432 21.009c-1.938 0.003-3.864-0.303-5.704-0.909-0.881-0.285-1.846-0.081-2.536 0.534l-3.599 2.712c-3.873-1.927-7.012-5.066-8.941-8.938l2.637-3.505c0.687-0.686 0.932-1.697 0.636-2.621-0.607-1.845-0.915-3.773-0.913-5.715-0.003-1.416-1.151-2.564-2.567-2.567h-5.875c-1.418 0.001-2.567 1.151-2.568 2.568 0.018 16.248 13.184 29.414 29.432 29.432 1.418-0.001 2.567-1.151 2.568-2.568v-5.86c-0.004-1.415-1.152-2.561-2.568-2.563z"></path>
</symbol>
<symbol id="icon-Frame-14" viewBox="0 0 24 32">
<path fill="#fff" style="fill: var(--color1, #fff)" opacity="0.5" d="M12.14 15.616c3.548 0 6.426-3.494 6.426-7.808s-0.945-7.808-6.426-7.808c-5.481 0-6.426 3.494-6.426 7.808s2.877 7.808 6.426 7.808z"></path>
<path fill="#fff" style="fill: var(--color1, #fff)" opacity="0.5" d="M24.261 27.218c-0.119-7.508-1.1-9.649-8.604-11.008-2.003 1.796-5.037 1.796-7.040 0-7.424 1.34-8.463 3.447-8.599 10.758-0.012 0.596-0.017 0.628-0.018 0.559 0 0.128 0 0.37 0 0.788 0 0 1.792 3.602 12.136 3.602s12.136-3.602 12.136-3.602c0-0.269 0-0.456 0-0.584-0.013-0.172-0.015-0.343-0.010-0.515z"></path>
</symbol>
<symbol id="icon-Ellipse-2" viewBox="0 0 32 32">
<path fill="inherit" style="fill: inherit" d="M32 16c0 8.837-7.163 16-16 16s-16-7.163-16-16c0-8.837 7.163-16 16-16s16 7.163 16 16z"></path>
</symbol>
<symbol id="icon-Frame-video" viewBox="0 0 66 32">
<path fill="#fff" style="fill: var(--color1, #fff)" opacity="0.23" d="M13.459 32h-11.96c-0.263 0.003-0.523-0.064-0.752-0.195s-0.418-0.322-0.548-0.551c-0.13-0.23-0.197-0.49-0.192-0.754s0.079-0.522 0.217-0.747l16.928-29.003c0.131-0.224 0.317-0.41 0.54-0.541s0.476-0.203 0.735-0.208h11.573c0.262 0.001 0.519 0.071 0.745 0.203s0.413 0.322 0.543 0.55c0.129 0.228 0.197 0.487 0.194 0.749s-0.074 0.52-0.207 0.746l-16.533 29.003c-0.131 0.224-0.317 0.41-0.54 0.541s-0.476 0.203-0.735 0.208z"></path>
<path fill="#fff" style="fill: var(--color1, #fff)" opacity="0.08" d="M48.028 32h-11.96c-0.263 0.003-0.523-0.064-0.752-0.195s-0.418-0.322-0.548-0.551c-0.13-0.23-0.197-0.49-0.192-0.754s0.079-0.522 0.217-0.747l16.928-29.003c0.131-0.224 0.317-0.41 0.54-0.541s0.476-0.203 0.735-0.208h11.564c0.262 0.001 0.519 0.071 0.745 0.203s0.414 0.322 0.543 0.55c0.13 0.228 0.196 0.487 0.194 0.749s-0.074 0.52-0.207 0.746l-16.533 29.003c-0.127 0.227-0.312 0.417-0.536 0.548s-0.479 0.201-0.739 0.201z"></path>
<path fill="#fff" style="fill: var(--color1, #fff)" opacity="0.23" d="M48.504 2.248l-7.343 12.826c-0.64 1.115-1.562 2.041-2.674 2.684s-2.374 0.979-3.657 0.975h-10.992l10.509-17.983c0.131-0.224 0.317-0.41 0.54-0.541s0.476-0.203 0.735-0.208h11.564c0.265-0.006 0.527 0.059 0.758 0.189s0.425 0.318 0.559 0.547c0.134 0.229 0.206 0.49 0.206 0.756s-0.070 0.527-0.204 0.756z"></path>
<path fill="#fff" style="fill: var(--color1, #fff)" opacity="0.08" d="M34.837 18.733h-10.927l-0.022 0.044-6.42 10.975c-0.133 0.226-0.205 0.483-0.207 0.746s0.065 0.521 0.194 0.749c0.129 0.228 0.317 0.418 0.543 0.55s0.483 0.202 0.745 0.203h11.916c0.266 0 0.527-0.069 0.758-0.2s0.424-0.321 0.561-0.549l7.123-12.518 9.41-16.485-7.343 12.826c-0.64 1.115-1.562 2.041-2.674 2.684s-2.374 0.979-3.657 0.975z"></path>
</symbol>
</defs>
</svg>
