<svg width="1345" height="656" viewBox="0 0 1345 656" fill="none" xmlns="http://www.w3.org/2000/svg">
<g clip-path="url(#clip0_448_686)">
<path opacity="0.08" d="M-69.2144 187H-139.134C-140.674 187.02 -142.192 186.626 -143.528 185.859C-144.864 185.091 -145.971 183.979 -146.733 182.637C-147.494 181.296 -147.882 179.774 -147.857 178.231C-147.832 176.688 -147.394 175.18 -146.589 173.864L-47.6217 4.37882C-46.8549 3.07257 -45.7672 1.98449 -44.4624 1.21808C-43.1577 0.451667 -41.6787 0.032364 -40.1666 0H27.4401C28.9707 0.00437022 30.4729 0.413844 31.7949 1.18695C33.1169 1.96005 34.2114 3.06931 34.968 4.40256C35.7246 5.73581 36.1162 7.24567 36.1033 8.77933C36.0904 10.313 35.6734 11.816 34.8945 13.1363L-61.76 182.621C-62.5012 183.95 -63.5824 185.056 -64.8929 185.826C-66.2033 186.596 -67.6954 187.001 -69.2144 187Z" fill="white"/>
</g>
<g clip-path="url(#clip1_448_686)">
<path opacity="0.08" d="M56.7856 704H-13.1344C-14.6745 704.02 -16.1917 703.626 -17.5281 702.859C-18.8645 702.091 -19.9712 700.979 -20.7326 699.637C-21.4939 698.296 -21.8824 696.774 -21.8572 695.231C-21.832 693.688 -21.3942 692.18 -20.5895 690.864L78.3783 521.379C79.1451 520.073 80.2328 518.984 81.5376 518.218C82.8423 517.452 84.3213 517.032 85.8334 517H153.44C154.971 517.004 156.473 517.414 157.795 518.187C159.117 518.96 160.211 520.069 160.968 521.403C161.725 522.736 162.116 524.246 162.103 525.779C162.09 527.313 161.673 528.816 160.895 530.136L64.24 699.621C63.4988 700.95 62.4176 702.056 61.1071 702.826C59.7967 703.596 58.3046 704.001 56.7856 704Z" fill="white"/>
<path opacity="0.23" d="M59.5621 530.136L16.6328 605.091C12.8924 611.609 7.4987 617.02 0.997719 620.774C-5.50325 624.529 -12.88 626.494 -20.3835 626.47H-84.6483L-23.2114 521.379C-22.4446 520.073 -21.3569 518.985 -20.0521 518.218C-18.7474 517.452 -17.2684 517.032 -15.7563 517H51.8504C53.3997 516.966 54.9296 517.347 56.283 518.104C57.6364 518.86 58.7639 519.964 59.5496 521.303C60.3353 522.641 60.7512 524.165 60.7533 525.718C60.7554 527.271 60.3442 528.796 59.5621 530.136Z" fill="white"/>
<path opacity="0.08" d="M-20.3317 626.47H-84.2112L-84.3392 626.727L-121.87 690.864C-122.649 692.184 -123.066 693.687 -123.079 695.221C-123.092 696.754 -122.7 698.264 -121.944 699.597C-121.187 700.931 -120.092 702.04 -118.77 702.813C-117.448 703.586 -115.946 703.996 -114.416 704H-44.7524C-43.1986 704.002 -41.6709 703.599 -40.3191 702.831C-38.9672 702.064 -37.8375 700.958 -37.0406 699.621L4.60287 626.47L59.6139 530.136L16.6845 605.091C12.9441 611.609 7.54982 617.019 1.04884 620.774C-5.45213 624.529 -12.8282 626.494 -20.3317 626.47Z" fill="white"/>
</g>
<g clip-path="url(#clip2_448_686)">
<path opacity="0.23" d="M359.447 548H310.177C309.091 548.014 308.022 547.736 307.081 547.194C306.139 546.653 305.359 545.867 304.823 544.92C304.286 543.973 304.013 542.899 304.03 541.81C304.048 540.721 304.357 539.656 304.924 538.727L374.663 419.091C375.203 418.169 375.97 417.401 376.889 416.86C377.808 416.319 378.85 416.023 379.916 416H427.592C428.67 416.003 429.729 416.292 430.661 416.838C431.592 417.384 432.363 418.167 432.896 419.108C433.43 420.049 433.706 421.115 433.697 422.197C433.688 423.28 433.394 424.341 432.845 425.273L364.736 544.909C364.196 545.831 363.43 546.599 362.51 547.14C361.591 547.681 360.548 547.977 359.483 548" fill="white"/>
<path opacity="0.08" d="M501.859 548H452.589C451.504 548.014 450.435 547.736 449.493 547.194C448.551 546.653 447.772 545.867 447.235 544.92C446.699 543.973 446.425 542.899 446.443 541.81C446.46 540.721 446.769 539.656 447.336 538.727L517.075 419.091C517.615 418.169 518.382 417.401 519.301 416.86C520.22 416.319 521.263 416.023 522.328 416H569.968C571.047 416.003 572.105 416.292 573.037 416.838C573.968 417.384 574.74 418.167 575.273 419.108C575.806 420.049 576.082 421.115 576.073 422.197C576.064 423.28 575.77 424.341 575.221 425.273L507.112 544.909C506.59 545.847 505.828 546.628 504.904 547.171C503.981 547.715 502.93 548.001 501.859 548Z" fill="white"/>
<path opacity="0.23" d="M503.816 425.273L473.565 478.182C470.929 482.783 467.129 486.602 462.548 489.252C457.967 491.903 452.769 493.29 447.481 493.273H402.196L445.488 419.091C446.029 418.169 446.795 417.401 447.715 416.86C448.634 416.319 449.676 416.023 450.742 416H498.382C499.473 415.976 500.551 416.245 501.505 416.779C502.459 417.313 503.253 418.092 503.807 419.037C504.361 419.982 504.654 421.058 504.655 422.154C504.657 423.25 504.367 424.326 503.816 425.273Z" fill="white"/>
<path opacity="0.08" d="M447.518 493.273H402.504L402.414 493.455L375.967 538.727C375.418 539.659 375.125 540.72 375.115 541.803C375.106 542.885 375.382 543.951 375.915 544.892C376.449 545.833 377.22 546.616 378.151 547.162C379.083 547.708 380.141 547.997 381.22 548H430.309C431.404 548.001 432.481 547.717 433.433 547.175C434.386 546.633 435.182 545.853 435.743 544.909L465.088 493.273L503.852 425.273L473.602 478.182C470.966 482.783 467.165 486.602 462.584 489.252C458.003 491.903 452.805 493.29 447.518 493.273Z" fill="white"/>
</g>
<g clip-path="url(#clip3_448_686)">
<path opacity="0.23" d="M405.447 263H356.177C355.091 263.014 354.022 262.736 353.081 262.194C352.139 261.653 351.359 260.867 350.823 259.92C350.286 258.973 350.013 257.899 350.03 256.81C350.048 255.721 350.357 254.656 350.924 253.727L420.663 134.091C421.203 133.169 421.97 132.401 422.889 131.86C423.808 131.319 424.85 131.023 425.916 131H473.592C474.67 131.003 475.729 131.292 476.661 131.838C477.592 132.384 478.363 133.167 478.896 134.108C479.43 135.049 479.706 136.115 479.697 137.197C479.688 138.28 479.394 139.341 478.845 140.273L410.736 259.909C410.196 260.831 409.43 261.599 408.51 262.14C407.591 262.681 406.548 262.977 405.483 263" fill="white"/>
<path opacity="0.08" d="M547.859 263H498.589C497.504 263.014 496.435 262.736 495.493 262.194C494.551 261.653 493.772 260.867 493.235 259.92C492.699 258.973 492.425 257.899 492.443 256.81C492.46 255.721 492.769 254.656 493.336 253.727L563.075 134.091C563.615 133.169 564.382 132.401 565.301 131.86C566.22 131.319 567.263 131.023 568.328 131H615.968C617.047 131.003 618.105 131.292 619.037 131.838C619.968 132.384 620.74 133.167 621.273 134.108C621.806 135.049 622.082 136.115 622.073 137.197C622.064 138.28 621.77 139.341 621.221 140.273L553.112 259.909C552.59 260.847 551.828 261.628 550.904 262.171C549.981 262.715 548.93 263.001 547.859 263Z" fill="white"/>
<path opacity="0.23" d="M549.816 140.273L519.565 193.182C516.929 197.783 513.129 201.602 508.548 204.252C503.967 206.903 498.769 208.29 493.481 208.273H448.196L491.488 134.091C492.029 133.169 492.795 132.401 493.715 131.86C494.634 131.319 495.676 131.023 496.742 131H544.382C545.473 130.976 546.551 131.245 547.505 131.779C548.459 132.313 549.253 133.092 549.807 134.037C550.361 134.982 550.654 136.058 550.655 137.154C550.657 138.25 550.367 139.326 549.816 140.273Z" fill="white"/>
<path opacity="0.08" d="M493.518 208.273H448.504L448.414 208.455L421.967 253.727C421.418 254.659 421.125 255.72 421.115 256.803C421.106 257.885 421.382 258.951 421.915 259.892C422.449 260.833 423.22 261.616 424.151 262.162C425.083 262.708 426.142 262.997 427.22 263H476.309C477.404 263.001 478.481 262.717 479.433 262.175C480.386 261.633 481.182 260.853 481.743 259.909L511.088 208.273L549.852 140.273L519.602 193.182C516.966 197.783 513.165 201.602 508.584 204.252C504.003 206.903 498.805 208.29 493.518 208.273Z" fill="white"/>
</g>
<g clip-path="url(#clip4_448_686)">
<path opacity="0.23" d="M854.447 170H805.177C804.091 170.014 803.022 169.736 802.081 169.194C801.139 168.653 800.359 167.867 799.823 166.92C799.286 165.973 799.013 164.899 799.03 163.81C799.048 162.721 799.357 161.656 799.924 160.727L869.663 41.0909C870.203 40.1689 870.97 39.4008 871.889 38.8598C872.808 38.3188 873.85 38.0228 874.916 38H922.592C923.67 38.0031 924.729 38.2921 925.661 38.8378C926.592 39.3836 927.363 40.1666 927.896 41.1077C928.43 42.0488 928.706 43.1146 928.697 44.1972C928.688 45.2798 928.394 46.3407 927.845 47.2727L859.736 166.909C859.196 167.831 858.43 168.599 857.51 169.14C856.591 169.681 855.548 169.977 854.483 170" fill="white"/>
<path opacity="0.08" d="M996.859 170H947.589C946.504 170.014 945.435 169.736 944.493 169.194C943.551 168.653 942.772 167.867 942.235 166.92C941.699 165.973 941.425 164.899 941.443 163.81C941.46 162.721 941.769 161.656 942.336 160.727L1012.07 41.0909C1012.62 40.1689 1013.38 39.4008 1014.3 38.8598C1015.22 38.3188 1016.26 38.0228 1017.33 38H1064.97C1066.05 38.0031 1067.11 38.2921 1068.04 38.8378C1068.97 39.3836 1069.74 40.1666 1070.27 41.1077C1070.81 42.0488 1071.08 43.1146 1071.07 44.1972C1071.06 45.2798 1070.77 46.3407 1070.22 47.2727L1002.11 166.909C1001.59 167.847 1000.83 168.628 999.904 169.171C998.981 169.715 997.93 170.001 996.859 170Z" fill="white"/>
<path opacity="0.23" d="M998.816 47.2727L968.565 100.182C965.929 104.783 962.129 108.602 957.548 111.252C952.967 113.903 947.769 115.29 942.481 115.273H897.196L940.488 41.0909C941.029 40.1689 941.795 39.4008 942.715 38.8598C943.634 38.3188 944.676 38.0228 945.742 38H993.382C994.473 37.9763 995.551 38.2452 996.505 38.779C997.459 39.3129 998.253 40.0923 998.807 41.0371C999.361 41.9818 999.654 43.0577 999.655 44.1538C999.657 45.2498 999.367 46.3264 998.816 47.2727Z" fill="white"/>
<path opacity="0.08" d="M942.518 115.273H897.504L897.414 115.455L870.967 160.727C870.418 161.659 870.125 162.72 870.115 163.803C870.106 164.885 870.382 165.951 870.915 166.892C871.449 167.833 872.22 168.616 873.151 169.162C874.083 169.708 875.142 169.997 876.22 170H925.309C926.404 170.001 927.481 169.717 928.433 169.175C929.386 168.633 930.182 167.853 930.743 166.909L960.088 115.273L998.852 47.2727L968.602 100.182C965.966 104.783 962.165 108.602 957.584 111.252C953.003 113.903 947.805 115.29 942.518 115.273Z" fill="white"/>
</g>
<g clip-path="url(#clip5_448_686)">
<path opacity="0.23" d="M670.447 384H621.177C620.091 384.014 619.022 383.736 618.081 383.194C617.139 382.653 616.359 381.867 615.823 380.92C615.286 379.973 615.013 378.899 615.03 377.81C615.048 376.721 615.357 375.656 615.924 374.727L685.663 255.091C686.203 254.169 686.97 253.401 687.889 252.86C688.808 252.319 689.85 252.023 690.916 252H738.592C739.67 252.003 740.729 252.292 741.661 252.838C742.592 253.384 743.363 254.167 743.896 255.108C744.43 256.049 744.706 257.115 744.697 258.197C744.688 259.28 744.394 260.341 743.845 261.273L675.736 380.909C675.196 381.831 674.43 382.599 673.51 383.14C672.591 383.681 671.548 383.977 670.483 384" fill="white"/>
<path opacity="0.08" d="M812.859 384H763.589C762.504 384.014 761.435 383.736 760.493 383.194C759.551 382.653 758.772 381.867 758.235 380.92C757.699 379.973 757.425 378.899 757.443 377.81C757.46 376.721 757.769 375.656 758.336 374.727L828.075 255.091C828.615 254.169 829.382 253.401 830.301 252.86C831.22 252.319 832.263 252.023 833.328 252H880.968C882.047 252.003 883.105 252.292 884.037 252.838C884.968 253.384 885.74 254.167 886.273 255.108C886.806 256.049 887.082 257.115 887.073 258.197C887.064 259.28 886.77 260.341 886.221 261.273L818.112 380.909C817.59 381.847 816.828 382.628 815.904 383.171C814.981 383.715 813.93 384.001 812.859 384Z" fill="white"/>
<path opacity="0.23" d="M814.816 261.273L784.565 314.182C781.929 318.783 778.129 322.602 773.548 325.252C768.967 327.903 763.769 329.29 758.481 329.273H713.196L756.488 255.091C757.029 254.169 757.795 253.401 758.715 252.86C759.634 252.319 760.676 252.023 761.742 252H809.382C810.473 251.976 811.551 252.245 812.505 252.779C813.459 253.313 814.253 254.092 814.807 255.037C815.361 255.982 815.654 257.058 815.655 258.154C815.657 259.25 815.367 260.326 814.816 261.273Z" fill="white"/>
<path opacity="0.08" d="M758.518 329.273H713.504L713.414 329.455L686.967 374.727C686.418 375.659 686.125 376.72 686.115 377.803C686.106 378.885 686.382 379.951 686.915 380.892C687.449 381.833 688.22 382.616 689.151 383.162C690.083 383.708 691.142 383.997 692.22 384H741.309C742.404 384.001 743.481 383.717 744.433 383.175C745.386 382.633 746.182 381.853 746.743 380.909L776.088 329.273L814.852 261.273L784.602 314.182C781.966 318.783 778.165 322.602 773.584 325.252C769.003 327.903 763.805 329.29 758.518 329.273Z" fill="white"/>
</g>
<g clip-path="url(#clip6_448_686)">
<path opacity="0.23" d="M1075.45 662H1026.18C1025.09 662.014 1024.02 661.736 1023.08 661.194C1022.14 660.653 1021.36 659.867 1020.82 658.92C1020.29 657.973 1020.01 656.899 1020.03 655.81C1020.05 654.721 1020.36 653.656 1020.92 652.727L1090.66 533.091C1091.2 532.169 1091.97 531.401 1092.89 530.86C1093.81 530.319 1094.85 530.023 1095.92 530H1143.59C1144.67 530.003 1145.73 530.292 1146.66 530.838C1147.59 531.384 1148.36 532.167 1148.9 533.108C1149.43 534.049 1149.71 535.115 1149.7 536.197C1149.69 537.28 1149.39 538.341 1148.84 539.273L1080.74 658.909C1080.2 659.831 1079.43 660.599 1078.51 661.14C1077.59 661.681 1076.55 661.977 1075.48 662" fill="white"/>
<path opacity="0.08" d="M1217.86 662H1168.59C1167.5 662.014 1166.43 661.736 1165.49 661.194C1164.55 660.653 1163.77 659.867 1163.24 658.92C1162.7 657.973 1162.42 656.899 1162.44 655.81C1162.46 654.721 1162.77 653.656 1163.34 652.727L1233.07 533.091C1233.62 532.169 1234.38 531.401 1235.3 530.86C1236.22 530.319 1237.26 530.023 1238.33 530H1285.97C1287.05 530.003 1288.11 530.292 1289.04 530.838C1289.97 531.384 1290.74 532.167 1291.27 533.108C1291.81 534.049 1292.08 535.115 1292.07 536.197C1292.06 537.28 1291.77 538.341 1291.22 539.273L1223.11 658.909C1222.59 659.847 1221.83 660.628 1220.9 661.171C1219.98 661.715 1218.93 662.001 1217.86 662Z" fill="white"/>
<path opacity="0.23" d="M1219.82 539.273L1189.57 592.182C1186.93 596.783 1183.13 600.602 1178.55 603.252C1173.97 605.903 1168.77 607.29 1163.48 607.273H1118.2L1161.49 533.091C1162.03 532.169 1162.8 531.401 1163.71 530.86C1164.63 530.319 1165.68 530.023 1166.74 530H1214.38C1215.47 529.976 1216.55 530.245 1217.51 530.779C1218.46 531.313 1219.25 532.092 1219.81 533.037C1220.36 533.982 1220.65 535.058 1220.66 536.154C1220.66 537.25 1220.37 538.326 1219.82 539.273Z" fill="white"/>
<path opacity="0.08" d="M1163.52 607.273H1118.5L1118.41 607.455L1091.97 652.727C1091.42 653.659 1091.12 654.72 1091.12 655.803C1091.11 656.885 1091.38 657.951 1091.92 658.892C1092.45 659.833 1093.22 660.616 1094.15 661.162C1095.08 661.708 1096.14 661.997 1097.22 662H1146.31C1147.4 662.001 1148.48 661.717 1149.43 661.175C1150.39 660.633 1151.18 659.853 1151.74 658.909L1181.09 607.273L1219.85 539.273L1189.6 592.182C1186.97 596.783 1183.16 600.602 1178.58 603.252C1174 605.903 1168.8 607.29 1163.52 607.273Z" fill="white"/>
</g>
<g clip-path="url(#clip7_448_686)">
<path opacity="0.23" d="M1262.42 405H1205.18C1203.92 405.016 1202.67 404.694 1201.58 404.066C1200.48 403.438 1199.58 402.528 1198.96 401.43C1198.33 400.333 1198.01 399.088 1198.04 397.825C1198.06 396.563 1198.41 395.329 1199.07 394.252L1280.09 255.583C1280.72 254.514 1281.61 253.624 1282.68 252.997C1283.75 252.37 1284.96 252.026 1286.2 252H1341.58C1342.84 252.004 1344.07 252.339 1345.15 252.971C1346.23 253.604 1347.13 254.511 1347.75 255.602C1348.37 256.693 1348.69 257.928 1348.68 259.183C1348.67 260.438 1348.32 261.668 1347.69 262.748L1268.56 401.417C1267.93 402.486 1267.04 403.376 1265.97 404.003C1264.91 404.63 1263.7 404.973 1262.46 405" fill="white"/>
<path opacity="0.23" d="M1430.14 262.748L1394.99 324.074C1391.93 329.407 1387.52 333.834 1382.2 336.906C1376.87 339.978 1370.83 341.586 1364.69 341.566H1312.08L1362.38 255.583C1363 254.514 1363.89 253.624 1364.96 252.997C1366.03 252.37 1367.24 252.026 1368.48 252H1423.83C1425.09 251.972 1426.35 252.284 1427.45 252.903C1428.56 253.522 1429.49 254.425 1430.13 255.52C1430.77 256.615 1431.11 257.862 1431.11 259.133C1431.12 260.403 1430.78 261.651 1430.14 262.748Z" fill="white"/>
<path opacity="0.08" d="M1364.73 341.566H1312.44L1312.33 341.777L1281.61 394.252C1280.97 395.332 1280.63 396.562 1280.62 397.817C1280.61 399.072 1280.93 400.307 1281.55 401.398C1282.17 402.489 1283.06 403.396 1284.15 404.029C1285.23 404.661 1286.46 404.996 1287.71 405H1344.74C1346.01 405.001 1347.26 404.672 1348.37 404.044C1349.48 403.416 1350.4 402.511 1351.05 401.417L1385.15 341.566L1430.18 262.748L1395.04 324.074C1391.97 329.407 1387.56 333.834 1382.24 336.906C1376.91 339.978 1370.88 341.586 1364.73 341.566Z" fill="white"/>
</g>
<g clip-path="url(#clip8_448_686)">
<path opacity="0.23" d="M998.227 465H968.702C968.051 465.008 967.411 464.842 966.846 464.518C966.282 464.194 965.815 463.724 965.493 463.157C965.172 462.59 965.008 461.947 965.018 461.295C965.029 460.643 965.214 460.006 965.554 459.45L1007.35 387.85C1007.67 387.298 1008.13 386.838 1008.68 386.515C1009.23 386.191 1009.86 386.014 1010.49 386H1039.06C1039.71 386.002 1040.35 386.175 1040.9 386.501C1041.46 386.828 1041.92 387.297 1042.24 387.86C1042.56 388.423 1042.73 389.061 1042.72 389.709C1042.72 390.357 1042.54 390.992 1042.21 391.55L1001.4 463.15C1001.07 463.702 1000.61 464.162 1000.06 464.485C999.512 464.809 998.888 464.986 998.249 465" fill="white"/>
<path opacity="0.08" d="M1083.57 465H1054.04C1053.39 465.008 1052.75 464.842 1052.19 464.518C1051.62 464.194 1051.16 463.724 1050.84 463.157C1050.51 462.59 1050.35 461.947 1050.36 461.295C1050.37 460.643 1050.56 460.006 1050.9 459.45L1092.69 387.85C1093.01 387.298 1093.47 386.838 1094.02 386.515C1094.57 386.191 1095.2 386.014 1095.84 386H1124.39C1125.03 386.002 1125.67 386.175 1126.22 386.501C1126.78 386.828 1127.24 387.297 1127.56 387.86C1127.88 388.423 1128.05 389.061 1128.04 389.709C1128.04 390.357 1127.86 390.992 1127.53 391.55L1086.72 463.15C1086.4 463.711 1085.95 464.179 1085.39 464.504C1084.84 464.829 1084.21 465 1083.57 465Z" fill="white"/>
<path opacity="0.23" d="M1084.74 391.549L1066.61 423.215C1065.03 425.968 1062.76 428.254 1060.01 429.84C1057.27 431.426 1054.15 432.257 1050.98 432.246H1023.85L1049.79 387.85C1050.11 387.298 1050.57 386.838 1051.12 386.514C1051.67 386.191 1052.3 386.014 1052.94 386H1081.49C1082.14 385.986 1082.79 386.147 1083.36 386.466C1083.93 386.786 1084.41 387.252 1084.74 387.818C1085.07 388.383 1085.24 389.027 1085.25 389.683C1085.25 390.339 1085.07 390.983 1084.74 391.549Z" fill="white"/>
<path opacity="0.08" d="M1051 432.247H1024.03L1023.98 432.355L1008.13 459.45C1007.8 460.008 1007.62 460.643 1007.62 461.291C1007.61 461.939 1007.78 462.577 1008.1 463.14C1008.42 463.703 1008.88 464.172 1009.44 464.499C1009.99 464.825 1010.63 464.998 1011.28 465H1040.69C1041.35 465.001 1041.99 464.831 1042.56 464.506C1043.14 464.182 1043.61 463.715 1043.95 463.15L1061.53 432.247L1084.76 391.55L1066.64 423.215C1065.06 425.968 1062.78 428.254 1060.03 429.84C1057.29 431.427 1054.17 432.257 1051 432.247Z" fill="white"/>
</g>
<g clip-path="url(#clip9_448_686)">
<path opacity="0.23" d="M1016.23 291H986.702C986.051 291.008 985.411 290.842 984.846 290.518C984.282 290.194 983.815 289.724 983.493 289.157C983.172 288.59 983.008 287.947 983.018 287.295C983.029 286.643 983.214 286.006 983.554 285.45L1025.35 213.85C1025.67 213.298 1026.13 212.838 1026.68 212.515C1027.23 212.191 1027.86 212.014 1028.49 212H1057.06C1057.71 212.002 1058.35 212.175 1058.9 212.501C1059.46 212.828 1059.92 213.297 1060.24 213.86C1060.56 214.423 1060.73 215.061 1060.72 215.709C1060.72 216.357 1060.54 216.992 1060.21 217.55L1019.4 289.15C1019.07 289.702 1018.61 290.162 1018.06 290.485C1017.51 290.809 1016.89 290.986 1016.25 291" fill="white"/>
<path opacity="0.08" d="M1101.57 291H1072.04C1071.39 291.008 1070.75 290.842 1070.19 290.518C1069.62 290.194 1069.16 289.724 1068.84 289.157C1068.51 288.59 1068.35 287.947 1068.36 287.295C1068.37 286.643 1068.56 286.006 1068.9 285.45L1110.69 213.85C1111.01 213.298 1111.47 212.838 1112.02 212.515C1112.57 212.191 1113.2 212.014 1113.84 212H1142.39C1143.03 212.002 1143.67 212.175 1144.22 212.501C1144.78 212.828 1145.24 213.297 1145.56 213.86C1145.88 214.423 1146.05 215.061 1146.04 215.709C1146.04 216.357 1145.86 216.992 1145.53 217.55L1104.72 289.15C1104.4 289.711 1103.95 290.179 1103.39 290.504C1102.84 290.829 1102.21 291 1101.57 291Z" fill="white"/>
<path opacity="0.23" d="M1102.74 217.549L1084.61 249.215C1083.03 251.968 1080.76 254.254 1078.01 255.84C1075.27 257.426 1072.15 258.257 1068.98 258.246H1041.85L1067.79 213.85C1068.11 213.298 1068.57 212.838 1069.12 212.514C1069.67 212.191 1070.3 212.014 1070.94 212H1099.49C1100.14 211.986 1100.79 212.147 1101.36 212.466C1101.93 212.786 1102.41 213.252 1102.74 213.818C1103.07 214.383 1103.24 215.027 1103.25 215.683C1103.25 216.339 1103.07 216.983 1102.74 217.549Z" fill="white"/>
<path opacity="0.08" d="M1069 258.247H1042.03L1041.98 258.355L1026.13 285.45C1025.8 286.008 1025.62 286.643 1025.62 287.291C1025.61 287.939 1025.78 288.577 1026.1 289.14C1026.42 289.703 1026.88 290.172 1027.44 290.499C1027.99 290.825 1028.63 290.998 1029.28 291H1058.69C1059.35 291.001 1059.99 290.831 1060.56 290.506C1061.14 290.182 1061.61 289.715 1061.95 289.15L1079.53 258.247L1102.76 217.55L1084.64 249.215C1083.06 251.968 1080.78 254.254 1078.03 255.84C1075.29 257.427 1072.17 258.257 1069 258.247Z" fill="white"/>
</g>
<g clip-path="url(#clip10_448_686)">
<path opacity="0.23" d="M501.227 71H471.702C471.051 71.0085 470.411 70.842 469.846 70.5178C469.282 70.1936 468.815 69.7236 468.493 69.1569C468.172 68.5901 468.008 67.9473 468.018 67.2954C468.029 66.6435 468.214 66.0063 468.554 65.4504L510.346 -6.15012C510.67 -6.70196 511.129 -7.16163 511.68 -7.48541C512.231 -7.80919 512.855 -7.98633 513.494 -8H542.064C542.711 -7.99815 543.345 -7.82517 543.903 -7.49856C544.462 -7.17196 544.924 -6.70334 545.243 -6.1401C545.563 -5.57685 545.728 -4.939 545.723 -4.29108C545.718 -3.64317 545.541 -3.00821 545.212 -2.45044L504.397 69.1502C504.074 69.702 503.614 70.1616 503.063 70.4854C502.512 70.8092 501.888 70.9863 501.249 71" fill="white"/>
<path opacity="0.08" d="M586.57 71H557.044C556.394 71.0085 555.753 70.842 555.189 70.5178C554.625 70.1936 554.157 69.7236 553.836 69.1569C553.514 68.5901 553.35 67.9473 553.361 67.2954C553.371 66.6435 553.556 66.0063 553.896 65.4504L595.688 -6.15012C596.012 -6.70196 596.471 -7.16163 597.022 -7.48541C597.573 -7.80919 598.198 -7.98633 598.836 -8H627.385C628.032 -7.99815 628.666 -7.82517 629.224 -7.49856C629.783 -7.17196 630.245 -6.70334 630.564 -6.1401C630.884 -5.57685 631.049 -4.939 631.044 -4.29108C631.038 -3.64317 630.862 -3.00821 630.533 -2.45044L589.718 69.1502C589.405 69.7114 588.948 70.1788 588.395 70.504C587.842 70.8292 587.212 71.0004 586.57 71Z" fill="white"/>
<path opacity="0.23" d="M587.743 -2.45055L569.614 29.2148C568.035 31.9683 565.757 34.2541 563.012 35.8403C560.267 37.4264 557.152 38.2566 553.983 38.2464H526.845L552.789 -6.15024C553.113 -6.70208 553.572 -7.16175 554.123 -7.48552C554.674 -7.8093 555.299 -7.98644 555.937 -8.00011H584.486C585.14 -8.01431 585.786 -7.85337 586.358 -7.53387C586.929 -7.21437 587.405 -6.74786 587.737 -6.18245C588.069 -5.61704 588.245 -4.97315 588.246 -4.31716C588.246 -3.66118 588.073 -3.01687 587.743 -2.45055Z" fill="white"/>
<path opacity="0.08" d="M554.005 38.2466H527.03L526.976 38.3553L511.127 65.4504C510.798 66.0082 510.622 66.6432 510.617 67.2911C510.612 67.939 510.777 68.5768 511.096 69.1401C511.416 69.7033 511.878 70.1719 512.436 70.4985C512.995 70.8251 513.629 70.9981 514.275 71H543.693C544.349 71.0007 544.994 70.8307 545.565 70.5064C546.136 70.1821 546.613 69.7148 546.949 69.1502L564.534 38.2466L587.764 -2.45044L569.636 29.2149C568.057 31.9684 565.779 34.2542 563.034 35.8404C560.288 37.4266 557.174 38.2567 554.005 38.2466Z" fill="white"/>
</g>
<g clip-path="url(#clip11_448_686)">
<path opacity="0.23" d="M689.227 584H659.702C659.051 584.008 658.411 583.842 657.846 583.518C657.282 583.194 656.815 582.724 656.493 582.157C656.172 581.59 656.008 580.947 656.018 580.295C656.029 579.643 656.214 579.006 656.554 578.45L698.346 506.85C698.67 506.298 699.129 505.838 699.68 505.515C700.231 505.191 700.855 505.014 701.494 505H730.064C730.711 505.002 731.345 505.175 731.903 505.501C732.462 505.828 732.924 506.297 733.243 506.86C733.563 507.423 733.728 508.061 733.723 508.709C733.718 509.357 733.541 509.992 733.212 510.55L692.397 582.15C692.074 582.702 691.614 583.162 691.063 583.485C690.512 583.809 689.888 583.986 689.249 584" fill="white"/>
<path opacity="0.08" d="M774.57 584H745.044C744.394 584.008 743.753 583.842 743.189 583.518C742.625 583.194 742.157 582.724 741.836 582.157C741.514 581.59 741.35 580.947 741.361 580.295C741.371 579.643 741.556 579.006 741.896 578.45L783.688 506.85C784.012 506.298 784.471 505.838 785.022 505.515C785.573 505.191 786.198 505.014 786.836 505H815.385C816.032 505.002 816.666 505.175 817.224 505.501C817.783 505.828 818.245 506.297 818.564 506.86C818.884 507.423 819.049 508.061 819.044 508.709C819.038 509.357 818.862 509.992 818.533 510.55L777.718 582.15C777.405 582.711 776.948 583.179 776.395 583.504C775.842 583.829 775.212 584 774.57 584Z" fill="white"/>
<path opacity="0.23" d="M775.743 510.549L757.614 542.215C756.035 544.968 753.757 547.254 751.012 548.84C748.267 550.426 745.152 551.257 741.983 551.246H714.845L740.789 506.85C741.113 506.298 741.572 505.838 742.123 505.514C742.674 505.191 743.299 505.014 743.937 505H772.486C773.14 504.986 773.786 505.147 774.358 505.466C774.929 505.786 775.405 506.252 775.737 506.818C776.069 507.383 776.245 508.027 776.246 508.683C776.246 509.339 776.073 509.983 775.743 510.549Z" fill="white"/>
<path opacity="0.08" d="M742.005 551.247H715.03L714.976 551.355L699.127 578.45C698.798 579.008 698.622 579.643 698.617 580.291C698.612 580.939 698.777 581.577 699.096 582.14C699.416 582.703 699.878 583.172 700.436 583.499C700.995 583.825 701.629 583.998 702.275 584H731.693C732.349 584.001 732.994 583.831 733.565 583.506C734.136 583.182 734.613 582.715 734.949 582.15L752.534 551.247L775.764 510.55L757.636 542.215C756.057 544.968 753.779 547.254 751.034 548.84C748.288 550.427 745.174 551.257 742.005 551.247Z" fill="white"/>
</g>
<g clip-path="url(#clip12_448_686)">
<path opacity="0.23" d="M1177.23 87H1147.7C1147.05 87.0085 1146.41 86.842 1145.85 86.5178C1145.28 86.1936 1144.81 85.7236 1144.49 85.1569C1144.17 84.5901 1144.01 83.9473 1144.02 83.2954C1144.03 82.6435 1144.21 82.0063 1144.55 81.4504L1186.35 9.84988C1186.67 9.29804 1187.13 8.83837 1187.68 8.51459C1188.23 8.19081 1188.86 8.01367 1189.49 8H1218.06C1218.71 8.00185 1219.35 8.17483 1219.9 8.50144C1220.46 8.82804 1220.92 9.29666 1221.24 9.8599C1221.56 10.4231 1221.73 11.061 1221.72 11.7089C1221.72 12.3568 1221.54 12.9918 1221.21 13.5496L1180.4 85.1502C1180.07 85.702 1179.61 86.1616 1179.06 86.4854C1178.51 86.8092 1177.89 86.9863 1177.25 87" fill="white"/>
<path opacity="0.08" d="M1262.57 87H1233.04C1232.39 87.0085 1231.75 86.842 1231.19 86.5178C1230.62 86.1936 1230.16 85.7236 1229.84 85.1569C1229.51 84.5901 1229.35 83.9473 1229.36 83.2954C1229.37 82.6435 1229.56 82.0063 1229.9 81.4504L1271.69 9.84988C1272.01 9.29804 1272.47 8.83837 1273.02 8.51459C1273.57 8.19081 1274.2 8.01367 1274.84 8H1303.39C1304.03 8.00185 1304.67 8.17483 1305.22 8.50144C1305.78 8.82804 1306.24 9.29666 1306.56 9.8599C1306.88 10.4231 1307.05 11.061 1307.04 11.7089C1307.04 12.3568 1306.86 12.9918 1306.53 13.5496L1265.72 85.1502C1265.4 85.7114 1264.95 86.1788 1264.39 86.504C1263.84 86.8292 1263.21 87.0004 1262.57 87Z" fill="white"/>
<path opacity="0.23" d="M1263.74 13.5494L1245.61 45.2148C1244.03 47.9683 1241.76 50.2541 1239.01 51.8403C1236.27 53.4264 1233.15 54.2566 1229.98 54.2464H1202.85L1228.79 9.84976C1229.11 9.29792 1229.57 8.83825 1230.12 8.51448C1230.67 8.1907 1231.3 8.01356 1231.94 7.99989H1260.49C1261.14 7.98569 1261.79 8.14663 1262.36 8.46613C1262.93 8.78563 1263.41 9.25214 1263.74 9.81755C1264.07 10.383 1264.24 11.0269 1264.25 11.6828C1264.25 12.3388 1264.07 12.9831 1263.74 13.5494Z" fill="white"/>
<path opacity="0.08" d="M1230 54.2466H1203.03L1202.98 54.3553L1187.13 81.4504C1186.8 82.0082 1186.62 82.6432 1186.62 83.2911C1186.61 83.939 1186.78 84.5768 1187.1 85.1401C1187.42 85.7033 1187.88 86.1719 1188.44 86.4985C1188.99 86.8251 1189.63 86.9981 1190.28 87H1219.69C1220.35 87.0007 1220.99 86.8307 1221.56 86.5064C1222.14 86.1821 1222.61 85.7148 1222.95 85.1502L1240.53 54.2466L1263.76 13.5496L1245.64 45.2149C1244.06 47.9684 1241.78 50.2542 1239.03 51.8404C1236.29 53.4266 1233.17 54.2567 1230 54.2466Z" fill="white"/>
</g>
<g clip-path="url(#clip13_448_686)">
<path opacity="0.23" d="M68.2275 188H38.7017C38.0513 188.008 37.4106 187.842 36.8463 187.518C36.282 187.194 35.8149 186.724 35.4934 186.157C35.1719 185.59 35.0078 184.947 35.0185 184.295C35.0291 183.643 35.214 183.006 35.5538 182.45L77.3459 110.85C77.6697 110.298 78.129 109.838 78.68 109.515C79.231 109.191 79.8552 109.014 80.4938 109H109.064C109.711 109.002 110.345 109.175 110.903 109.501C111.462 109.828 111.924 110.297 112.243 110.86C112.563 111.423 112.728 112.061 112.723 112.709C112.718 113.357 112.541 113.992 112.212 114.55L71.3973 186.15C71.0735 186.702 70.6142 187.162 70.0632 187.485C69.5123 187.809 68.8877 187.986 68.2492 188" fill="white"/>
<path opacity="0.08" d="M153.57 188H124.044C123.394 188.008 122.753 187.842 122.189 187.518C121.625 187.194 121.157 186.724 120.836 186.157C120.514 185.59 120.35 184.947 120.361 184.295C120.371 183.643 120.556 183.006 120.896 182.45L162.688 110.85C163.012 110.298 163.471 109.838 164.022 109.515C164.573 109.191 165.198 109.014 165.836 109H194.385C195.032 109.002 195.666 109.175 196.224 109.501C196.783 109.828 197.245 110.297 197.564 110.86C197.884 111.423 198.049 112.061 198.044 112.709C198.038 113.357 197.862 113.992 197.533 114.55L156.718 186.15C156.405 186.711 155.948 187.179 155.395 187.504C154.842 187.829 154.212 188 153.57 188Z" fill="white"/>
<path opacity="0.23" d="M154.743 114.549L136.614 146.215C135.035 148.968 132.757 151.254 130.012 152.84C127.267 154.426 124.152 155.257 120.983 155.246H93.8454L119.789 110.85C120.113 110.298 120.572 109.838 121.123 109.514C121.674 109.191 122.299 109.014 122.937 109H151.486C152.14 108.986 152.786 109.147 153.358 109.466C153.929 109.786 154.405 110.252 154.737 110.818C155.069 111.383 155.245 112.027 155.246 112.683C155.246 113.339 155.073 113.983 154.743 114.549Z" fill="white"/>
<path opacity="0.08" d="M121.005 155.247H94.03L93.9759 155.355L78.1274 182.45C77.7985 183.008 77.6224 183.643 77.617 184.291C77.6115 184.939 77.7769 185.577 78.0964 186.14C78.4159 186.703 78.8781 187.172 79.4363 187.499C79.9945 187.825 80.6289 187.998 81.2753 188H110.693C111.349 188.001 111.994 187.831 112.565 187.506C113.136 187.182 113.613 186.715 113.949 186.15L131.534 155.247L154.764 114.55L136.636 146.215C135.057 148.968 132.779 151.254 130.034 152.84C127.288 154.427 124.174 155.257 121.005 155.247Z" fill="white"/>
</g>
<g clip-path="url(#clip14_448_686)">
<path opacity="0.23" d="M150.227 356H120.702C120.051 356.008 119.411 355.842 118.846 355.518C118.282 355.194 117.815 354.724 117.493 354.157C117.172 353.59 117.008 352.947 117.018 352.295C117.029 351.643 117.214 351.006 117.554 350.45L159.346 278.85C159.67 278.298 160.129 277.838 160.68 277.515C161.231 277.191 161.855 277.014 162.494 277H191.064C191.711 277.002 192.345 277.175 192.903 277.501C193.462 277.828 193.924 278.297 194.243 278.86C194.563 279.423 194.728 280.061 194.723 280.709C194.718 281.357 194.541 281.992 194.212 282.55L153.397 354.15C153.074 354.702 152.614 355.162 152.063 355.485C151.512 355.809 150.888 355.986 150.249 356" fill="white"/>
<path opacity="0.08" d="M235.57 356H206.044C205.394 356.008 204.753 355.842 204.189 355.518C203.625 355.194 203.157 354.724 202.836 354.157C202.514 353.59 202.35 352.947 202.361 352.295C202.371 351.643 202.556 351.006 202.896 350.45L244.688 278.85C245.012 278.298 245.471 277.838 246.022 277.515C246.573 277.191 247.198 277.014 247.836 277H276.385C277.032 277.002 277.666 277.175 278.224 277.501C278.783 277.828 279.245 278.297 279.564 278.86C279.884 279.423 280.049 280.061 280.044 280.709C280.038 281.357 279.862 281.992 279.533 282.55L238.718 354.15C238.405 354.711 237.948 355.179 237.395 355.504C236.842 355.829 236.212 356 235.57 356Z" fill="white"/>
<path opacity="0.23" d="M236.743 282.549L218.614 314.215C217.035 316.968 214.757 319.254 212.012 320.84C209.267 322.426 206.152 323.257 202.983 323.246H175.845L201.789 278.85C202.113 278.298 202.572 277.838 203.123 277.514C203.674 277.191 204.299 277.014 204.937 277H233.486C234.14 276.986 234.786 277.147 235.358 277.466C235.929 277.786 236.405 278.252 236.737 278.818C237.069 279.383 237.245 280.027 237.246 280.683C237.246 281.339 237.073 281.983 236.743 282.549Z" fill="white"/>
<path opacity="0.08" d="M203.005 323.247H176.03L175.976 323.355L160.127 350.45C159.798 351.008 159.622 351.643 159.617 352.291C159.612 352.939 159.777 353.577 160.096 354.14C160.416 354.703 160.878 355.172 161.436 355.499C161.995 355.825 162.629 355.998 163.275 356H192.693C193.349 356.001 193.994 355.831 194.565 355.506C195.136 355.182 195.613 354.715 195.949 354.15L213.534 323.247L236.764 282.55L218.636 314.215C217.057 316.968 214.779 319.254 212.034 320.84C209.288 322.427 206.174 323.257 203.005 323.247Z" fill="white"/>
</g>
<defs>
<clipPath id="clip0_448_686">
<rect width="386" height="187" fill="white" transform="translate(-350)"/>
</clipPath>
<clipPath id="clip1_448_686">
<rect width="386" height="187" fill="white" transform="translate(-224 517)"/>
</clipPath>
<clipPath id="clip2_448_686">
<rect width="272" height="132" fill="white" transform="translate(304 416)"/>
</clipPath>
<clipPath id="clip3_448_686">
<rect width="272" height="132" fill="white" transform="translate(350 131)"/>
</clipPath>
<clipPath id="clip4_448_686">
<rect width="272" height="132" fill="white" transform="translate(799 38)"/>
</clipPath>
<clipPath id="clip5_448_686">
<rect width="272" height="132" fill="white" transform="translate(615 252)"/>
</clipPath>
<clipPath id="clip6_448_686">
<rect width="272" height="132" fill="white" transform="translate(1020 530)"/>
</clipPath>
<clipPath id="clip7_448_686">
<rect width="316" height="153" fill="white" transform="translate(1198 252)"/>
</clipPath>
<clipPath id="clip8_448_686">
<rect width="163" height="79" fill="white" transform="translate(965 386)"/>
</clipPath>
<clipPath id="clip9_448_686">
<rect width="163" height="79" fill="white" transform="translate(983 212)"/>
</clipPath>
<clipPath id="clip10_448_686">
<rect width="163" height="79" fill="white" transform="translate(468 -8)"/>
</clipPath>
<clipPath id="clip11_448_686">
<rect width="163" height="79" fill="white" transform="translate(656 505)"/>
</clipPath>
<clipPath id="clip12_448_686">
<rect width="163" height="79" fill="white" transform="translate(1144 8)"/>
</clipPath>
<clipPath id="clip13_448_686">
<rect width="163" height="79" fill="white" transform="translate(35 109)"/>
</clipPath>
<clipPath id="clip14_448_686">
<rect width="163" height="79" fill="white" transform="translate(117 277)"/>
</clipPath>
</defs>
</svg>
